<ttFont>
<head>
    <!-- Most of this table will be recalculated by the compiler -->
    <tableVersion value="1.0"/>
    <fontRevision value="1.01"/>
    <checkSumAdjustment value="0x60433ac1"/>
    <magicNumber value="0x5f0f3cf5"/>
    <flags value="00000000 00101011"/>
    <unitsPerEm value="860"/>
    <created value="Wed Feb  1 14:42:49 2017"/>
    <modified value="Fri Apr 21 09:40:28 2017"/>
    <xMin value="0"/>
    <yMin value="-248"/>
    <xMax value="725"/>
    <yMax value="721"/>
    <macStyle value="00000000 00000000"/>
    <lowestRecPPEM value="8"/>
    <fontDirectionHint value="2"/>
    <indexToLocFormat value="0"/>
    <glyphDataFormat value="0"/>
  </head>
          <CharString index="0">
            -22.41113 -18.18848 -18.56055 -22.86816 hvcurveto
            -0.00098 vlineto
            -22.86816 18.18945 -18.55957 22.41016 22.41016 18.18945 18.55957 22.86816 vhcurveto
            0.00098 vlineto
            22.86816 -18.18848 18.56055 -22.41113 vhcurveto
            return
          </CharString>
          <CharString index="1">
            -414.28613 81.19922 414.28613 vlineto
            return
          </CharString>
          <CharString index="2">
            -81.2002 -165.71387 81.2002 hlineto
            return
          </CharString>
          <CharString index="3">
            -81.19922 -165.71387 81.19922 hlineto
            return
          </CharString>
          <CharString index="4">
            -165.71289 -165.68945 -82.85742 165.68945 -165.71484 81.19922 165.71484 159.11133 82.85742 -159.11133 165.71289 vlineto
            return
          </CharString>
          <CharString index="5">
            -406 -82.85742 406 hlineto
            return
          </CharString>
          <CharString index="6">
            -22.41016 -18.18945 -18.56055 -22.86816 hvcurveto
            -0.00098 vlineto
            0.00098 -22.86816 18.18848 -18.55957 22.41016 0 rrcurveto
            22.41113 18.18848 18.55957 22.86816 hvcurveto
            0.00098 vlineto
            22.86816 -18.18848 18.56055 -22.41113 vhcurveto
            return
          </CharString>
          <CharString index="7">
            -89.69043 -72.70996 -111.28809 -137.28223 hvcurveto
            -82.85742 vlineto
            -137.28223 90.88574 -111.29004 112.11426 vhcurveto
            203 hlineto
            112.11426 90.88574 111.29004 137.28223 hvcurveto
            82.85742 vlineto
            137.28223 -72.70898 111.28809 -89.6914 vhcurveto
            return
          </CharString>
          <CharString index="8">
            203 hlineto
            44.84473 -0.00098 36.35449 -68.00977 0 -83.89355 0 -83.89355 -36.35449 -68.00977 -44.84473 -0.00098 rrcurveto
            -203 hlineto
            -44.84473 0.00098 -36.35449 68.00977 0 83.89355 0 83.89355 36.35449 68.00977 44.84473 0.00098 rrcurveto
            return
          </CharString>
          <CharString index="9">
            -385.69922 -158.3164 0 -82.85742 101.5 41.64062 0 -380.4668 406 0 0 580 rlineto
            return
          </CharString>
          <CharString index="10">
            -96.1836 -549.61914 487.19922 0 rlineto
            return
          </CharString>
          <CharString index="11">
            -30.38086 121.80078 143.61914 -121.80078 vlineto
            return
          </CharString>
          <CharString index="12">
            -30.38086 -66.69922 vlineto
            81.6836 466.76172 rlineto
            return
          </CharString>
          <CharString index="13">
            -82.85742 188.5 vlineto
            -87 -497.14258 406 0 101.5 580 rlineto
            return
          </CharString>
          <CharString index="14">
            -22.41113 -18.18848 -18.56055 -22.86816 hvcurveto
            -0.00098 vlineto
            -22.86816 18.18848 -18.55957 22.41113 vhcurveto
            22.41016 0 18.18848 18.55957 0.00098 22.86816 rrcurveto
            0.00098 vlineto
            22.86816 -18.18945 18.56055 -22.41016 vhcurveto
            return
          </CharString>
          <CharString index="15">
            -406 -82.85645 406 hlineto
            return
          </CharString>
          <CharString index="16">
            -101.5 -580 81.19922 0 5.3164 30.38086 111.16797 0 5.3164 -30.38086 406 0 -101.5 580 rlineto
            return
          </CharString>
          <CharString index="17">
            41.08398 -234.76367 -82.16797 0 rlineto
            return
          </CharString>
          <CharString index="18">
            -580 406 vlineto
            112.11426 90.88574 74.19336 91.52148 hvcurveto
            -0.04785 57.93164 -22.28027 53.6914 -36.4336 29.98242 rrcurveto
            return
          </CharString>
          <CharString index="19">
            24.2041 29.44336 13.93555 42.94336 0.01855 45.20508 -0.00098 85.65332 -81.66211 69.43457 -100.7334 0 rrcurveto
            return
          </CharString>
          <CharString index="20">
            44.84473 0 36.35352 -32.57812 0.00098 -40.1875 rrcurveto
            -40.18848 -36.35352 -32.5791 -44.8457 vhcurveto
            return
          </CharString>
          <CharString index="21">
            44.8457 36.35352 -37.09668 -45.76074 hvcurveto
            0 -45.76074 -36.35352 -37.0957 -44.8457 -0.00098 rrcurveto
            return
          </CharString>
          <CharString index="22">
            -89.6914 -72.70898 -111.28809 -137.28223 hvcurveto
            -82.85742 vlineto
            -137.28223 90.88574 -111.29004 112.11426 vhcurveto
            203 hlineto
            104.48828 0 86.03613 96.6709 11.22168 124.28223 rrcurveto
            -155.05469 hlineto
            -13.20801 -17.39746 -16.10254 -10.22168 -17.38086 0 rrcurveto
            303.8086 vlineto
            17.38086 0 16.10254 -10.22168 13.20801 -17.39746 rrcurveto
            128.95312 hlineto
            -29.13379 66.61328 -49.60645 43.86328 -56.30469 0 rrcurveto
            return
          </CharString>
          <CharString index="23">
            -580 406 vlineto
            112.11426 90.88574 111.29004 137.28223 hvcurveto
            82.85742 vlineto
            137.28223 -72.70898 111.28809 -89.6914 vhcurveto
            return
          </CharString>
          <CharString index="24">
            44.84473 -0.00098 36.35449 -68.00977 0 -83.89355 0 -83.89355 -36.35449 -68.00977 -44.84473 -0.00098 rrcurveto
            return
          </CharString>
          <CharString index="25">
            -580 609 82.85742 -203 248.57031 81.19922 82.85742 -81.19922 82.85742 203 82.85742 vlineto
            return
          </CharString>
          <CharString index="26">
            -580 406 331.42773 81.19922 82.85742 -81.19922 82.85742 203 82.85742 vlineto
            return
          </CharString>
          <CharString index="27">
            -89.6914 -72.70898 -111.28809 -137.28223 hvcurveto
            -82.85742 vlineto
            -137.28223 90.88574 -111.29004 112.11426 vhcurveto
            406 303.81055 -156.3086 -82.85742 hlineto
            -13.20801 -17.39746 -16.10254 -10.22168 -17.38086 0 rrcurveto
            303.8086 vlineto
            17.38086 0 16.10254 -10.22168 13.20801 -17.39746 rrcurveto
            128.95312 hlineto
            -29.13379 66.61328 -49.60645 43.86328 -56.30469 0 rrcurveto
            return
          </CharString>
          <CharString index="28">
            -580 406 331.42773 81.19922 -331.42773 121.80078 580 -121.80078 -165.71484 -81.19922 165.71484 vlineto
            return
          </CharString>
          <CharString index="29">
            -580 406 580 vlineto
            return
          </CharString>
          <CharString index="30">
            -414.28516 vlineto
            -67.25293 0.00098 -54.52441 37.0791 -0.02148 45.75 rrcurveto
            0.02734 -81.20117 vlineto
            0 -137.05371 118.08594 -111.14062 145.81445 -0.37012 rrcurveto
            -0.00781 81.19922 vlineto
            146.15039 118.47852 111.28906 137.2832 hvcurveto
            -0.72852 331.42773 hlineto
            return
          </CharString>
          <CharString index="31">
            -580 406 193.33398 vlineto
            33.83203 -193.33398 169.16797 0 -81.19922 464 81.19922 33.14258 0 82.85742 -81.19922 0 -121.80078 -49.71484 0 49.71484 rlineto
            return
          </CharString>
          <CharString index="32">
            -580 609 82.85742 -203 497.14258 vlineto
            return
          </CharString>
          <CharString index="33">
            -580 406 497.14258 vlineto
            40.59961 -16.66406 40.59961 16.66406 0 -497.14258 121.80078 0 0 580 -121.80078 0 -40.59961 -16.66602 -40.59961 16.66602 rlineto
            return
          </CharString>
          <CharString index="34">
            -580 406 497.14258 vlineto
            81.19922 -33.33008 0 -463.8125 121.80078 0 0 580 -121.80078 0 0 -33.33008 -81.19922 33.33008 rlineto
            return
          </CharString>
          <CharString index="35">
            -89.6914 -72.70898 -111.28809 -137.28223 hvcurveto
            -82.85742 vlineto
            -137.28223 90.88574 -111.29004 112.11426 vhcurveto
            203 hlineto
            112.11426 90.88574 111.29004 137.28223 hvcurveto
            82.85742 vlineto
            137.28223 -72.70898 111.28809 -89.6914 vhcurveto
            return
          </CharString>
          <CharString index="36">
            -580 406 82.85742 vlineto
            112.11328 0 90.88574 111.28809 0.00098 137.28223 rrcurveto
            137.2832 -72.70898 111.28906 -89.6914 vhcurveto
            return
          </CharString>
          <CharString index="37">
            44.8457 0.00098 36.35547 -37.09668 0 -45.76172 0 -45.76172 -36.35547 -37.09668 -44.8457 0.00098 rrcurveto
            return
          </CharString>
          <CharString index="38">
            -89.64453 -72.75586 -111.35938 -137.21094 hvcurveto
            0 -82.85742 0 -0.00098 rlineto
            -137.21094 90.94434 -111.36035 112.05566 vhcurveto
            203 580 -203 hlineto
            return
          </CharString>
          <CharString index="39">
            -82.85742 vlineto
            44.82129 -0.00098 36.37793 -68.05273 0 -83.85059 0 -83.85059 -36.37793 -68.05273 -44.82129 -0.00098 rrcurveto
            -193.33398 vlineto
            112.05566 90.94434 111.36035 137.21094 hvcurveto
            0 0.00098 0 82.85742 rlineto
            -0.00098 137.21094 -72.75488 111.35938 -89.64453 0 rrcurveto
            return
          </CharString>
          <CharString index="40">
            81.19922 82.85742 hlineto
            -203 82.85742 -121.80078 49.71289 -81.19922 0 0 -82.85547 203 -82.85742 rlineto
            return
          </CharString>
          <CharString index="41">
            -580 406 96.66602 vlineto
            81.19922 -96.66602 121.80078 0 -99.23828 118.14062 rlineto
            61.4414 44.74121 37.69434 81.01465 0.10254 87.5332 rrcurveto
            137.28223 -72.70996 111.28809 -89.69043 vhcurveto
            return
          </CharString>
          <CharString index="42">
            44.8457 36.35352 -37.09668 -45.76074 -45.76074 -36.35352 -37.09668 -44.8457 hvcurveto
            return
          </CharString>
          <CharString index="43">
            -41.06348 -0.02734 -40.2168 -11.09766 -34.71777 -20.88477 -62.63867 -37.6123 -38.24219 -65.3789 -0.61133 -70.52051 0 -101.49121 49.80957 -70.23535 38.29395 -38.83203 rrcurveto
            return
          </CharString>
          <CharString index="44">
            8.6211 -8.9082 4.74805 -11.70508 0.01758 -12.11523 rrcurveto
            -26.69434 -22.72168 -21.63965 -28.02832 vhcurveto
            -50.75 -82.85742 391.49805 hlineto
            0.00195 hlineto
            41.06348 0.02734 40.2168 11.09766 34.71777 20.88477 62.63867 37.6123 38.24219 65.3789 0.61133 70.52051 0 101.49121 -49.80957 70.23535 -38.29395 38.83203 rrcurveto
            return
          </CharString>
          <CharString index="45">
            -8.6211 8.9082 -4.74805 11.70508 -0.01758 12.11523 rrcurveto
            26.69434 22.72168 21.63965 28.02832 vhcurveto
            50.75 82.85742 hlineto
            return
          </CharString>
          <CharString index="46">
            -82.85742 101.5 -497.14258 406 497.14258 101.5 82.85742 vlineto
            return
          </CharString>
          <CharString index="47">
            -331.04688 vlineto
            -137.49316 118.15234 -111.45996 145.74805 vhcurveto
            81.19922 hlineto
            145.74805 118.15234 111.28906 137.2832 hvcurveto
            331.42773 -121.79883 -290 vlineto
            0 -45.76172 -36.35547 -37.09668 -44.8457 0.00098 rrcurveto
            372.85742 vlineto
            return
          </CharString>
          <CharString index="48">
            101.5 -580 406 0 101.5 580 -81.19922 0 -60.90039 -348.00195 -60.90039 348.00195 rlineto
            return
          </CharString>
          <CharString index="49">
            101.5 -580 406 0 17.40039 99.42969 17.40039 -99.42969 81.19922 0 101.5 580 -81.19922 0 -60.90039 -348.00195 -17.40039 99.42969 -81.19922 0 -17.40039 -99.42969 -60.90039 348.00195 rlineto
            return
          </CharString>
          <CharString index="50">
            101.57422 -290.21484 -101.57422 -289.78516 81.19922 0 60.94531 173.87305 60.85547 -173.87305 406 0 -101.57422 290.21484 101.57422 289.78516 -81.19922 0 -60.94531 -173.87305 -60.85547 173.87305 rlineto
            return
          </CharString>
          <CharString index="51">
            0 -82.85742 101.5 -41.42773 0 -455.71484 406 0 0 455.71484 101.5 41.42773 0 82.85742 -81.19922 0 -223.30078 -91.14453 -223.30078 91.14453 rlineto
            return
          </CharString>
          <CharString index="52">
            -82.85742 174 vlineto
            -174 -497.14258 609 0 0 82.85742 -174 0 174 497.14258 rlineto
            return
          </CharString>
          <CharString index="53">
            -121.7998 -49.9961 0 -86.1582 121.7998 53.29688 121.7998 -53.29688 0 86.1582 rlineto
            return
          </CharString>
          <CharString index="54">
            -725 -82.85742 725 hlineto
            return
          </CharString>
          <CharString index="55">
            -121.7998 49.9961 0 -82.85742 121.7998 -53.29785 rlineto
            return
          </CharString>
          <CharString index="56">
            -580 81.19922 580 vlineto
            return
          </CharString>
          <CharString index="57">
            0 -82.85742 101.5 -41.42773 0 -124.28711 -101.5 0 0 -82.85547 101.5 0 0 -82.85742 -101.5 0 0 -82.85742 101.5 0 0 -82.85742 406 0 0 82.85742 101.5 0 0 82.85742 rlineto
            -101.5 82.85742 101.5 82.85547 -101.5 124.28711 hlineto
            101.5 41.42773 0 82.85742 -81.19922 0 -223.30078 -91.14453 -223.30078 91.14453 rlineto
            return
          </CharString>
          <CharString index="58">
            -248.57129 81.19922 248.57129 vlineto
            return
          </CharString>
          <CharString index="59">
            -22.41113 -0.00098 -18.18848 -18.55957 0 -22.86816 rrcurveto
            -0.00098 vlineto
            -22.86816 18.18945 -18.55957 22.41016 22.41016 18.18945 18.55957 22.86816 vhcurveto
            0.00098 vlineto
            0 22.86816 -18.18848 18.55957 -22.41113 0.00098 rrcurveto
            return
          </CharString>
          <CharString index="60">
            -82.85742 243.60156 82.85742 vlineto
            return
          </CharString>
          <CharString index="61">
            121.7998 49.9961 0 -82.85742 -121.7998 -53.29785 rlineto
            return
          </CharString>
          <CharString index="62">
            -22.41016 -0.00098 -18.18945 -18.55957 0 -22.86816 rrcurveto
            -0.00098 vlineto
            0.00098 -22.86816 18.18848 -18.55957 22.41016 0 22.41113 0 18.18848 18.55957 0 22.86816 rrcurveto
            0.00098 vlineto
            0 22.86816 -18.18848 18.55957 -22.41113 0.00098 rrcurveto
            return
          </CharString>
          <CharString index="63">
            121.7998 49.9961 0 86.1582 -121.7998 -53.29688 -121.7998 53.29688 0 -86.1582 rlineto
            return
          </CharString>
          <CharString index="64">
            -121.79883 -248.6914 121.79883 hlineto
            return
          </CharString>
          <CharString index="65">
            0 -86.15918 121.80078 53.29785 0 82.85742 rlineto
            return
          </CharString>
          <CharString index="66">
            0 -86.15918 -121.80078 53.29785 0 82.85742 rlineto
            return
          </CharString>
          <CharString index="67">
            -22.41016 0.00098 -18.18945 18.55957 0 22.86816 rrcurveto
            0.00098 vlineto
            0.00098 22.86816 18.18848 18.55957 22.41016 0 22.41113 0 18.18848 -18.55957 0 -22.86816 rrcurveto
            -0.00098 vlineto
            0 -22.86816 -18.18848 -18.55957 -22.41113 -0.00098 rrcurveto
            return
          </CharString>
          <CharString index="68">
            -22.41113 0.00098 -18.18848 18.55957 0 22.86816 rrcurveto
            0.00098 vlineto
            22.86816 18.18945 18.55957 22.41016 22.41016 18.18945 -18.55957 -22.86816 vhcurveto
            -0.00098 vlineto
            0 -22.86816 -18.18848 -18.55957 -22.41113 -0.00098 rrcurveto
            return
          </CharString>
          <CharString index="69">
            82.85742 243.60156 -82.85742 vlineto
            return
          </CharString>
          <CharString index="70">
            223.30078 165.71484 81.19922 414.28516 -609 0 81.19922 -414.28516 rlineto
            return
          </CharString>
          <CharString index="71">
            -22.41113 -18.18848 -18.56055 -22.86816 hvcurveto
            -0.00098 vlineto
            -22.86816 18.18848 -18.55957 22.41113 vhcurveto
            22.41016 0 18.18848 18.55957 0.00098 22.86816 rrcurveto
            0.00098 vlineto
            22.86816 -18.18848 18.56055 -22.41113 vhcurveto
            return
          </CharString>
          <CharString index="72">
            -22.41113 -18.18848 -18.56055 -22.86816 hvcurveto
            -0.00098 vlineto
            0.00098 -22.86816 18.18848 -18.55957 22.41016 0 rrcurveto
            22.41113 18.18848 18.55957 22.86816 hvcurveto
            0.00098 vlineto
            22.86816 -18.18848 18.56055 -22.41113 vhcurveto
            return
          </CharString>
          <CharString index="73">
            -414.28613 81.2002 414.28613 vlineto
            return
          </CharString>
          <CharString index="74">
            -580 203 580 vlineto
            return
          </CharString>
          <CharString index="75">
            -580 121.80078 580 vlineto
            return
          </CharString>
          <CharString index="76">
            89.6914 72.70898 -111.28809 -137.28223 hvcurveto
            -82.85742 vlineto
            -137.28223 -90.88574 -111.29004 -112.11426 vhcurveto
            -203 hlineto
            -104.48828 0 -86.03613 96.6709 -11.22168 124.28223 rrcurveto
            155.05469 hlineto
            13.20801 -17.39746 16.10254 -10.22168 17.38086 0 rrcurveto
            303.8086 vlineto
            -17.38086 0 -16.10254 -10.22168 -13.20801 -17.39746 rrcurveto
            -128.95312 hlineto
            29.13379 66.61328 49.60645 43.86328 56.30469 0 rrcurveto
            return
          </CharString>
          <CharString index="77">
            -609 -82.85742 609 hlineto
            return
          </CharString>
          <CharString index="78">
            -86 72.5 86 vlineto
            return
          </CharString>
          <CharString index="79">
            72.5 hlineto
            return
          </CharString>
          <CharString index="80">
            86 -72.5 vlineto
            return
          </CharString>
          <CharString index="81">
            72.5 86 hlineto
            return
          </CharString>
          <CharString index="82">
            -72.5 hlineto
            return
          </CharString>
          <CharString index="83">
            -86 72.5 vlineto
            return
          </CharString>
          <CharString index="84">
            86 -72.5 -86 vlineto
            return
          </CharString>
          <CharString index="85">
            72.5 -86 -72.5 hlineto
            return
          </CharString>
          <CharString index="86">
            -304.5 -290 304.5 hlineto
            return
          </CharString>
          <CharString index="87">
            -223.30078 -165.71484 -81.19922 -414.28516 609 0 -81.19922 414.28516 rlineto
            return
          </CharString>
          <CharString index="88">
            -243.59961 -82.85742 243.59961 hlineto
            return
          </CharString>
          <CharString index="89">
            -609 82.85742 609 hlineto
            return
          </CharString>
          <CharString index="90">
            -243.59961 82.85742 243.59961 hlineto
            return
          </CharString>
          <CharString index="91">
            124.28613 -609 -124.28613 vlineto
            return
          </CharString>
          <CharString index="92">
            -243.59961 -124.28613 243.59961 hlineto
            return
          </CharString>
          <CharString index="93">
            -243.59961 124.28613 243.59961 hlineto
            return
          </CharString>
          <CharString index="94">
            124.28613 -243.59961 -124.28613 vlineto
            return
          </CharString>
          <CharString index="95">
            -580 81.19922 165.71484 527.80078 414.28516 vlineto
            return
          </CharString>
          <CharString index="96">
            -109.21484 81.19922 vlineto
            return
          </CharString>
          <CharString index="97">
            -166.19531 -182.69922 -248.57031 182.69922 -165.23438 243.60156 165.23438 182.69922 248.57031 -182.69922 166.19531 vlineto
            return
          </CharString>
          <CharString index="98">
            -168.16992 -0.00195 -136.32715 -129.83691 0.00098 -160.16113 -0.00098 -160.16113 136.32715 -129.83691 168.16992 -0.00195 168.17285 -0.00195 136.33203 129.83789 -0.00098 160.16406 0.00098 160.16406 -136.33203 129.83789 -168.17285 -0.00195 rrcurveto
            return
          </CharString>
          <CharString index="99">
            270.66602 0 -54.45508 -311.17578 44.46484 0 0 20.2539 81.20117 0 0 -95.7461 -81.20117 0 0 20.2539 -324.79883 0 rlineto
            return
          </CharString>
          <CharString index="100">
            406 0 -67.66602 -386.66797 -270.66797 0 58 331.42969 -125.66602 0 rlineto
            return
          </CharString>
          <CharString index="101">
            -248.57227 -81.19922 -331.42773 609 82.85742 -203 248.57031 81.19922 248.57227 vlineto
            return
          </CharString>
          <CharString index="102">
            580 -609 -82.85742 203 -497.14258 vlineto
            return
          </CharString>
          <CharString index="103">
            -81.19922 -331.42871 81.19922 hlineto
            return
          </CharString>
        <CharString name=".notdef">
          0 43 394 43 hstem
          43 43 553 43 vstem
          43 hmoveto
          639 480 -639 hlineto
          43 -437 rmoveto
          394 553 -394 vlineto
          endchar
        </CharString>
        <CharString name="A">
          21 -21 21 -21 30.38086 82.85742 466.76172 -20 20 -20 hstemhm
          hintmask 10110000
          159.5 580 rmoveto
          -91 callsubr
          -365.40039 -231.99805 rmoveto
          -90 callsubr
          endchar
        </CharString>
        <CharString name="Adieresis">
          21 -21 30.38086 82.85742 466.76172 -20 61.42871 82.85742 hstem
          240.7002 81.19922 81.20215 81.19922 vstem
          281.2998 704.28613 rmoveto
          -48 callsubr
          162.40137 hmoveto
          -48 callsubr
          -284.20117 -124.28613 rmoveto
          -91 callsubr
          -365.40039 -231.99805 rmoveto
          -90 callsubr
          endchar
        </CharString>
        <CharString name="Amacron">
          21 -21 30.38086 82.85742 466.76172 -20 61.42871 82.85742 hstem
          240.69922 243.60156 vstem
          240.69922 704.28613 rmoveto
          -47 callsubr
          -324.80078 -124.28613 rmoveto
          -91 callsubr
          -365.40039 -231.99805 rmoveto
          -90 callsubr
          endchar
        </CharString>
        <CharString name="B">
          0 103.03711 165.71484 82.85742 145.5332 82.85742 hstemhm
          58 406 81.19922 121.80078 -121.80078 101.19727 hintmask 11111000
          58 580 rmoveto
          -89 callsubr
          hintmask 11110100
          -88 callsubr
          -82.85742 vmoveto
          -87 callsubr
          -82.85742 vmoveto
          hintmask 11111000
          -86 callsubr
          endchar
        </CharString>
        <CharString name="C">
          21 -21 21 -21 497.14258 82.85742 hstemhm
          58 406 hintmask 10110000
          220.40039 580 rmoveto
          -85 callsubr
          endchar
        </CharString>
        <CharString name="Cacute">
          21 -21 497.14258 82.85742 3.84473 136.15527 hstemhm
          58 406 -162.40039 121.7998 hintmask 00101000
          301.59961 670.0039 rmoveto
          -46 callsubr
          hintmask 11010000
          -81.19922 -3.84473 rmoveto
          -85 callsubr
          endchar
        </CharString>
        <CharString name="Ccaron">
          21 -21 497.14258 82.85742 3.8457 136.1543 hstemhm
          58 406 -223.2998 243.59961 hintmask 00101000
          362.5 583.8457 rmoveto
          -44 callsubr
          hintmask 11010000
          -20.2998 -53.8418 rmoveto
          -85 callsubr
          endchar
        </CharString>
        <CharString name="Ccircumflex">
          21 -21 497.14258 82.85742 3.8457 136.1543 hstemhm
          58 406 -223.2998 243.59961 hintmask 00101000
          362.5 720 rmoveto
          -54 callsubr
          hintmask 11010000
          -263.89941 -90.0039 rmoveto
          -85 callsubr
          endchar
        </CharString>
        <CharString name="Cdotaccent">
          21 -21 497.14258 82.85742 41.42871 82.85742 hstemhm
          58 406 -142.09961 81.19922 hintmask 00101000
          362.5 704.28613 rmoveto
          -45 callsubr
          hintmask 11010000
          -142.09961 -124.28613 rmoveto
          -85 callsubr
          endchar
        </CharString>
        <CharString name="D">
          21 -21 21 -21 497.14258 82.85742 hstemhm
          58 406 81.19922 121.80078 hintmask 10111000
          58 580 rmoveto
          -84 callsubr
          -40.59961 -82.85742 rmoveto
          -83 callsubr
          endchar
        </CharString>
        <CharString name="Dcaron">
          21 -21 497.14258 82.85742 3.8457 136.1543 hstemhm
          58 406 -223.2998 243.59961 60.89941 121.80078 hintmask 00101000
          362.5 583.8457 rmoveto
          -44 callsubr
          hintmask 11010100
          -182.7002 -53.8418 rmoveto
          -84 callsubr
          -40.59961 -82.85742 rmoveto
          -83 callsubr
          endchar
        </CharString>
        <CharString name="E">
          0 82.85742 248.57031 82.85742 82.85742 82.85742 hstem
          58 406 vstem
          58 580 rmoveto
          -82 callsubr
          endchar
        </CharString>
        <CharString name="Ecaron">
          0 82.85742 248.57031 82.85742 82.85742 82.85742 3.8457 136.1543 hstemhm
          58 406 -223.2998 243.59961 hintmask 00010100
          362.5 583.8457 rmoveto
          -44 callsubr
          hintmask 11101000
          -182.7002 -53.8418 rmoveto
          -82 callsubr
          endchar
        </CharString>
        <CharString name="Edieresis">
          0 82.85742 248.57031 82.85742 82.85742 82.85742 41.42871 82.85742 hstemhm
          58 406 -223.2998 81.19922 81.20215 81.19922 hintmask 00010110
          281.2998 704.28613 rmoveto
          -48 callsubr
          162.40137 hmoveto
          -48 callsubr
          hintmask 11101000
          -385.70117 -124.28613 rmoveto
          -82 callsubr
          endchar
        </CharString>
        <CharString name="Edotaccent">
          0 82.85742 248.57031 82.85742 82.85742 82.85742 41.42871 82.85742 hstemhm
          58 406 -142.09961 81.19922 hintmask 00010100
          362.5 704.28613 rmoveto
          -45 callsubr
          hintmask 11101000
          -304.5 -124.28613 rmoveto
          -82 callsubr
          endchar
        </CharString>
        <CharString name="Emacron">
          0 82.85742 248.57031 82.85742 82.85742 82.85742 41.42871 82.85742 hstemhm
          58 406 -223.30078 243.60156 hintmask 00010100
          240.69922 704.28613 rmoveto
          -47 callsubr
          hintmask 11101000
          -426.30078 -124.28613 rmoveto
          -82 callsubr
          endchar
        </CharString>
        <CharString name="F">
          21 -21 21 -21 331.42773 82.85742 82.85742 82.85742 hstemhm
          58 406 hintmask 10111000
          58 580 rmoveto
          -81 callsubr
          endchar
        </CharString>
        <CharString name="G">
          21 -21 21 -21 497.14258 82.85742 hstemhm
          58 406 46.6914 156.3086 hintmask 10111000
          220.40039 580 rmoveto
          -80 callsubr
          endchar
        </CharString>
        <CharString name="Gcircumflex">
          21 -21 497.14258 82.85742 3.8457 136.1543 hstemhm
          58 406 -223.2998 243.59961 26.3916 156.3086 hintmask 00101000
          362.5 720 rmoveto
          -54 callsubr
          hintmask 11010100
          -263.89941 -90.0039 rmoveto
          -80 callsubr
          endchar
        </CharString>
        <CharString name="Gdotaccent">
          21 -21 497.14258 82.85742 41.42871 82.85742 hstemhm
          58 406 -142.09961 81.19922 107.5918 156.3086 hintmask 00101000
          362.5 704.28613 rmoveto
          -45 callsubr
          hintmask 11010100
          -142.09961 -124.28613 rmoveto
          -80 callsubr
          endchar
        </CharString>
        <CharString name="H">
          21 -21 21 -21 331.42773 82.85742 165.71484 -20 20 -20 hstemhm
          58 406 81.19922 121.80078 hintmask 10110110
          58 580 rmoveto
          -79 callsubr
          endchar
        </CharString>
        <CharString name="I">
          21 -21 21 -21 580 -20 20 -20 hstemhm
          159.5 406 hintmask 10101000
          159.5 580 rmoveto
          -78 callsubr
          endchar
        </CharString>
        <CharString name="IJ">
          21 -21 21 -21 580 -20 20 -20 hstemhm
          58 81.20117 -81.2002 121.79883 81.2002 406 hintmask 10101010
          261 580 rmoveto
          -77 callsubr
          hintmask 00000110
          -487.2002 0.1211 rmoveto
          -43 callsubr
          endchar
        </CharString>
        <CharString name="Idieresis">
          21 -21 580 -20 61.42871 82.85742 hstemhm
          159.5 406 -324.7998 81.19922 81.20215 81.19922 hintmask 00101100
          281.2998 704.28613 rmoveto
          -48 callsubr
          162.40137 hmoveto
          -48 callsubr
          hintmask 11010000
          -284.20117 -124.28613 rmoveto
          -78 callsubr
          endchar
        </CharString>
        <CharString name="Idotaccent">
          21 -21 580 -20 61.42871 82.85742 hstemhm
          159.5 406 -243.59961 81.19922 hintmask 00101000
          362.5 704.28613 rmoveto
          -45 callsubr
          hintmask 11010000
          -203 -124.28613 rmoveto
          -78 callsubr
          endchar
        </CharString>
        <CharString name="Imacron">
          21 -21 580 -20 61.42871 82.85742 hstemhm
          159.5 406 -324.80078 243.60156 hintmask 00101000
          240.69922 704.28613 rmoveto
          -47 callsubr
          hintmask 11010000
          -324.80078 -124.28613 rmoveto
          -78 callsubr
          endchar
        </CharString>
        <CharString name="J">
          21 -21 21 -21 580 -20 20 -20 hstemhm
          58 81.20117 121.79883 406 hintmask 10101100
          261 580 rmoveto
          -77 callsubr
          endchar
        </CharString>
        <CharString name="K">
          21 -21 21 -21 580 -20 20 -20 hstemhm
          hintmask 10100000
          58 580 rmoveto
          -76 callsubr
          endchar
        </CharString>
        <CharString name="L">
          0 82.85742 497.14258 -20 20 -20 hstemhm
          58 406 hintmask 11010000
          58 580 rmoveto
          -75 callsubr
          endchar
        </CharString>
        <CharString name="M">
          21 -21 21 -21 580 -20 20 -20 hstemhm
          58 406 81.19922 121.80078 hintmask 10101100
          58 580 rmoveto
          -74 callsubr
          endchar
        </CharString>
        <CharString name="N">
          21 -21 21 -21 580 -20 20 -20 hstemhm
          58 406 81.19922 121.80078 hintmask 10101100
          58 580 rmoveto
          -73 callsubr
          endchar
        </CharString>
        <CharString name="O">
          21 -21 21 -21 497.14258 82.85742 hstemhm
          545.19922 121.80078 hintmask 10110000
          220.40039 580 rmoveto
          -72 callsubr
          -40.59961 -82.85742 rmoveto
          -83 callsubr
          endchar
        </CharString>
        <CharString name="Odieresis">
          21 -21 497.14258 82.85742 41.42871 82.85742 hstem
          240.7002 81.19922 81.20215 81.19922 60.89844 121.80078 vstem
          281.2998 704.28613 rmoveto
          -48 callsubr
          162.40137 hmoveto
          -48 callsubr
          -223.30078 -124.28613 rmoveto
          -72 callsubr
          -40.59961 -82.85742 rmoveto
          -83 callsubr
          endchar
        </CharString>
        <CharString name="Omacron">
          21 -21 497.14258 82.85742 41.42871 82.85742 hstem
          240.69922 243.60156 60.89844 121.80078 vstem
          240.69922 704.28613 rmoveto
          -47 callsubr
          -263.90039 -124.28613 rmoveto
          -72 callsubr
          -40.59961 -82.85742 rmoveto
          -83 callsubr
          endchar
        </CharString>
        <CharString name="P">
          21 -21 21 -21 497.14258 82.85742 hstemhm
          545.20117 121.79883 hintmask 10110000
          58 580 rmoveto
          -71 callsubr
          -40.59961 -82.85742 rmoveto
          -70 callsubr
          endchar
        </CharString>
        <CharString name="Q">
          21 -21 21 -21 497.14258 82.85742 hstemhm
          545.19922 121.80078 hintmask 10110000
          220.40039 580 rmoveto
          -69 callsubr
          203 hmoveto
          -68 callsubr
          81.20117 -580 rmoveto
          -67 callsubr
          endchar
        </CharString>
        <CharString name="R">
          21 -21 21 -21 497.14453 82.85547 hstemhm
          545.19922 121.80078 hintmask 10110000
          58 580 rmoveto
          -66 callsubr
          -40.59961 -82.85547 rmoveto
          -65 callsubr
          endchar
        </CharString>
        <CharString name="S">
          0 82.85742 414.28516 82.85742 hstemhm
          58.00977 507.49023 -406 507.49023 hintmask 11100000
          275.5 580 rmoveto
          -64 callsubr
          hintmask 11010000
          -63 callsubr
          hintmask 11100000
          -62 callsubr
          endchar
        </CharString>
        <CharString name="T">
          21 -21 21 -21 497.14258 82.85742 hstemhm
          159.5 406 hintmask 10110000
          58 580 rmoveto
          -61 callsubr
          endchar
        </CharString>
        <CharString name="U">
          21 -21 21 -21 580 -20 20 -20 hstemhm
          58 406 81.20117 121.79883 hintmask 10101100
          58 580 rmoveto
          -60 callsubr
          endchar
        </CharString>
        <CharString name="Udieresis">
          21 -21 580 -20 61.42871 82.85742 hstemhm
          58 406 -223.2998 81.19922 81.20215 81.19922 60.90039 121.79883 hintmask 00101100
          281.2998 704.28613 rmoveto
          -48 callsubr
          162.40137 hmoveto
          -48 callsubr
          hintmask 11010010
          -385.70117 -124.28613 rmoveto
          -60 callsubr
          endchar
        </CharString>
        <CharString name="Umacron">
          21 -21 580 -20 61.42871 82.85742 hstemhm
          58 406 -223.30078 243.60156 60.90039 121.79883 hintmask 00101000
          240.69922 704.28613 rmoveto
          -47 callsubr
          hintmask 11010100
          -426.30078 -124.28613 rmoveto
          -60 callsubr
          endchar
        </CharString>
        <CharString name="V">
          21 -21 21 -21 580 -20 20 -20 hstemhm
          hintmask 10100000
          58 580 rmoveto
          -59 callsubr
          endchar
        </CharString>
        <CharString name="W">
          21 -21 21 -21 580 -20 20 -20 hstemhm
          484.30078 81.19922 hintmask 10101000
          580 vmoveto
          -58 callsubr
          endchar
        </CharString>
        <CharString name="Wdieresis">
          21 -21 580 -20 61.42871 82.85742 hstemhm
          240.7002 81.19922 81.20215 81.19922 0 81.19922 hintmask 00111000
          281.2998 704.28613 rmoveto
          -48 callsubr
          162.40137 hmoveto
          -48 callsubr
          hintmask 11000100
          -443.70117 -124.28613 rmoveto
          -58 callsubr
          endchar
        </CharString>
        <CharString name="X">
          21 -21 21 -21 580 -20 20 -20 hstemhm
          hintmask 10100000
          58 580 rmoveto
          -57 callsubr
          endchar
        </CharString>
        <CharString name="Y">
          21 -21 21 -21 580 -20 20 -20 hstemhm
          159.5 406 hintmask 10101000
          58 580 rmoveto
          -56 callsubr
          endchar
        </CharString>
        <CharString name="Ydieresis">
          21 -21 580 -20 61.42871 82.85742 hstemhm
          159.5 406 -324.7998 81.19922 81.20215 81.19922 hintmask 00101100
          281.2998 704.28613 rmoveto
          -48 callsubr
          162.40137 hmoveto
          -48 callsubr
          hintmask 11010000
          -385.70117 -124.28613 rmoveto
          -56 callsubr
          endchar
        </CharString>
        <CharString name="Z">
          0 82.85742 414.28516 82.85742 hstem
          58 580 rmoveto
          -55 callsubr
          endchar
        </CharString>
        <CharString name="Zdotaccent">
          0 82.85742 414.28516 82.85742 41.42871 82.85742 hstem
          321.90039 81.19922 vstem
          362.5 704.28613 rmoveto
          -45 callsubr
          -304.5 -124.28613 rmoveto
          -55 callsubr
          endchar
        </CharString>
        <CharString name="a">
          21 -21 30.38086 82.85742 466.76172 -20 hstem
          159.5 580 rmoveto
          -91 callsubr
          -365.40039 -231.99805 rmoveto
          -90 callsubr
          endchar
        </CharString>
        <CharString name="acute">
          583.84473 136.15527 hstem
          301.59961 121.7998 vstem
          hintmask 00000000
          301.59961 670.0039 rmoveto
          -46 callsubr
          endchar
        </CharString>
        <CharString name="acutecomb">
          583.84473 136.15527 hstem
          301.59961 121.7998 vstem
          hintmask 00000000
          301.59961 670.0039 rmoveto
          -46 callsubr
          endchar
        </CharString>
        <CharString name="adieresis">
          21 -21 30.38086 82.85742 466.76172 -20 61.42871 82.85742 hstem
          240.7002 81.19922 81.20215 81.19922 vstem
          281.2998 704.28613 rmoveto
          -48 callsubr
          162.40137 hmoveto
          -48 callsubr
          -284.20117 -124.28613 rmoveto
          -91 callsubr
          -365.40039 -231.99805 rmoveto
          -90 callsubr
          endchar
        </CharString>
        <CharString name="amacron">
          21 -21 30.38086 82.85742 466.76172 -20 61.42871 82.85742 hstem
          240.69922 243.60156 vstem
          240.69922 704.28613 rmoveto
          -47 callsubr
          -324.80078 -124.28613 rmoveto
          -91 callsubr
          -365.40039 -231.99805 rmoveto
          -90 callsubr
          endchar
        </CharString>
        <CharString name="asciicircum">
          583.8457 136.1543 hstem
          240.7002 243.59961 vstem
          362.5 720 rmoveto
          -54 callsubr
          endchar
        </CharString>
        <CharString name="b">
          0 103.03711 165.71484 82.85742 145.5332 82.85742 hstemhm
          58 406 81.19922 101.19727 -101.19727 121.80078 hintmask 11110100
          58 580 rmoveto
          -89 callsubr
          hintmask 11111000
          -88 callsubr
          -82.85742 vmoveto
          -87 callsubr
          -82.85742 vmoveto
          hintmask 11110100
          -86 callsubr
          endchar
        </CharString>
        <CharString name="bar">
          21 -21 21 -21 580 -20 20 -20 hstemhm
          321.90039 81.19922 hintmask 10101000
          321.90039 580 rmoveto
          -51 callsubr
          endchar
        </CharString>
        <CharString name="block">
          0 725 vstem
          725 720 rmoveto
          -725 -860 725 hlineto
          endchar
        </CharString>
        <CharString name="brokenbar">
          21 -21 21 -21 580 -20 20 -20 hstemhm
          321.90039 81.19922 hintmask 00101000
          321.90039 580 rmoveto
          -49 callsubr
          -81.19922 -331.42871 rmoveto
          hintmask 10001000
          -49 callsubr
          endchar
        </CharString>
        <CharString name="c">
          21 -21 497.14258 82.85742 hstem
          58 406 vstem
          220.40039 580 rmoveto
          -85 callsubr
          endchar
        </CharString>
        <CharString name="cacute">
          21 -21 497.14258 82.85742 3.84473 136.15527 hstemhm
          58 406 -162.40039 121.7998 hintmask 00101000
          301.59961 670.0039 rmoveto
          -46 callsubr
          hintmask 11010000
          -81.19922 -3.84473 rmoveto
          -85 callsubr
          endchar
        </CharString>
        <CharString name="ccaron">
          21 -21 497.14258 82.85742 3.8457 136.1543 hstemhm
          58 406 -223.2998 243.59961 hintmask 00101000
          362.5 583.8457 rmoveto
          -44 callsubr
          hintmask 11010000
          -20.2998 -53.8418 rmoveto
          -85 callsubr
          endchar
        </CharString>
        <CharString name="ccircumflex">
          21 -21 497.14258 82.85742 3.8457 136.1543 hstemhm
          58 406 -223.2998 243.59961 hintmask 00101000
          362.5 720 rmoveto
          -54 callsubr
          hintmask 11010000
          -263.89941 -90.0039 rmoveto
          -85 callsubr
          endchar
        </CharString>
        <CharString name="cdotaccent">
          21 -21 497.14258 82.85742 41.42871 82.85742 hstemhm
          58 406 -142.09961 81.19922 hintmask 00101000
          362.5 704.28613 rmoveto
          -45 callsubr
          hintmask 11010000
          -142.09961 -124.28613 rmoveto
          -85 callsubr
          endchar
        </CharString>
        <CharString name="colon">
          0.00098 82.85742 248.57031 82.85742 hstem
          321.90039 81.19922 vstem
          362.5 82.8584 rmoveto
          -93 callsubr
          331.42773 vmoveto
          -107 callsubr
          endchar
        </CharString>
        <CharString name="d">
          21 -21 497.14258 82.85742 hstem
          58 406 81.19922 121.80078 vstem
          58 580 rmoveto
          -84 callsubr
          -40.59961 -82.85742 rmoveto
          -83 callsubr
          endchar
        </CharString>
        <CharString name="dieresis">
          621.42871 82.85742 hstem
          240.7002 81.19922 81.20215 81.19922 vstem
          281.2998 704.28613 rmoveto
          -48 callsubr
          162.40137 hmoveto
          -48 callsubr
          endchar
        </CharString>
        <CharString name="dkshade">
          -54 86 86 86 86 86 86 86 86 86 hstem
          0 72.5 72.5 72.5 72.5 72.5 72.5 72.5 72.5 72.5 vstem
          720 vmoveto
          -860 72.5 86 72.5 -86 72.5 86 72.5 -86 72.5 86 72.5 -86 72.5 86 vlineto
          72.5 -86 72.5 86 72.5 86 -72.5 86 72.5 86 -72.5 86 72.5 86 -72.5 hlineto
          86 72.5 86 -72.5 86 72.5 86 vlineto
          -652.5 -86 rmoveto
          -22 callsubr
          145 86 rmoveto
          -22 callsubr
          145 86 rmoveto
          -22 callsubr
          145 86 rmoveto
          -22 callsubr
          -435 -86 rmoveto
          -22 callsubr
          145 86 rmoveto
          -22 callsubr
          145 86 rmoveto
          -22 callsubr
          145 86 rmoveto
          -22 callsubr
          -435 -86 rmoveto
          -22 callsubr
          145 86 rmoveto
          -22 callsubr
          145 86 rmoveto
          -22 callsubr
          145 86 rmoveto
          -22 callsubr
          -435 -86 rmoveto
          -22 callsubr
          145 86 rmoveto
          -22 callsubr
          145 86 rmoveto
          -22 callsubr
          145 86 rmoveto
          -22 callsubr
          endchar
        </CharString>
        <CharString name="dnblock">
          -220 430 hstem
          hintmask 00000000
          725 -220 rmoveto
          -725 430 725 hlineto
          endchar
        </CharString>
        <CharString name="dotbelowcomb">
          -124.28613 82.85742 hstem
          321.90039 81.19922 vstem
          hintmask 00000000
          362.5 -124.28613 rmoveto
          -40 callsubr
          endchar
        </CharString>
        <CharString name="e">
          0 82.85742 248.57031 82.85742 82.85742 82.85742 hstem
          58 406 vstem
          58 580 rmoveto
          -82 callsubr
          endchar
        </CharString>
        <CharString name="ecaron">
          0 82.85742 248.57031 82.85742 82.85742 82.85742 3.8457 136.1543 hstemhm
          58 406 -223.2998 243.59961 hintmask 00010100
          362.5 583.8457 rmoveto
          -44 callsubr
          hintmask 11101000
          -182.7002 -53.8418 rmoveto
          -82 callsubr
          endchar
        </CharString>
        <CharString name="edieresis">
          0 82.85742 248.57031 82.85742 82.85742 82.85742 41.42871 82.85742 hstemhm
          58 406 -223.2998 81.19922 81.20215 81.19922 hintmask 00010110
          281.2998 704.28613 rmoveto
          -48 callsubr
          162.40137 hmoveto
          -48 callsubr
          hintmask 11101000
          -385.70117 -124.28613 rmoveto
          -82 callsubr
          endchar
        </CharString>
        <CharString name="edotaccent">
          0 82.85742 248.57031 82.85742 82.85742 82.85742 41.42871 82.85742 hstemhm
          58 406 -142.09961 81.19922 hintmask 00010100
          362.5 704.28613 rmoveto
          -45 callsubr
          hintmask 11101000
          -304.5 -124.28613 rmoveto
          -82 callsubr
          endchar
        </CharString>
        <CharString name="ellipsis">
          0 82.85742 hstem
          159.5 81.19922 81.20117 81.19922 81.20117 81.19922 vstem
          cntrmask 01110000
          524.90039 82.85742 rmoveto
          -93 callsubr
          -162.40039 hmoveto
          -107 callsubr
          -162.40039 hmoveto
          -48 callsubr
          endchar
        </CharString>
        <CharString name="emacron">
          0 82.85742 248.57031 82.85742 82.85742 82.85742 41.42871 82.85742 hstemhm
          58 406 -223.30078 243.60156 hintmask 00010100
          240.69922 704.28613 rmoveto
          -47 callsubr
          hintmask 11101000
          -426.30078 -124.28613 rmoveto
          -82 callsubr
          endchar
        </CharString>
        <CharString name="equal">
          82.85742 82.85645 82.85742 82.85742 hstem
          565.5 331.42871 rmoveto
          -102 callsubr
          -82.85742 vmoveto
          -92 callsubr
          endchar
        </CharString>
        <CharString name="exclam">
          0 82.85742 497.14258 -20 20 -20 hstemhm
          321.90039 81.19922 hintmask 10010000
          362.5 82.85742 rmoveto
          -107 callsubr
          hintmask 11010000
          -40.59961 497.14258 rmoveto
          -106 callsubr
          endchar
        </CharString>
        <CharString name="exclamdbl">
          0 82.85742 497.14258 -20 20 -20 hstemhm
          240.7002 81.2002 81.19922 81.2002 hintmask 10011000
          281.2998 82.85742 rmoveto
          -35 callsubr
          162.40039 hmoveto
          -36 callsubr
          hintmask 11011000
          -40.60059 497.14258 rmoveto
          -34 callsubr
          -243.59961 hmoveto
          -34 callsubr
          endchar
        </CharString>
        <CharString name="exclamdown">
          20 -20 497.14258 82.85742 hstem
          321.90039 81.19922 vstem
          hintmask 00000000
          362.5 497.14258 rmoveto
          -22.41113 -18.18848 18.56055 22.86816 hvcurveto
          0.00098 vlineto
          22.86816 18.18945 18.55957 22.41016 22.41016 18.18945 -18.55957 -22.86816 vhcurveto
          -0.00098 vlineto
          -22.86816 -18.18848 -18.56055 -22.41113 vhcurveto
          -40.59961 -497.14258 rmoveto
          414.28613 81.19922 -414.28613 vlineto
          endchar
        </CharString>
        <CharString name="f">
          21 -21 331.42773 82.85742 82.85742 82.85742 hstem
          58 406 vstem
          58 580 rmoveto
          -81 callsubr
          endchar
        </CharString>
        <CharString name="filledbox">
          21 -21 21 -21 580 -20 20 -20 hstemhm
          58 609 hintmask 10101000
          58 580 rmoveto
          -580 609 580 vlineto
          endchar
        </CharString>
        <CharString name="four">
          0 143.61914 -113.23828 82.85742 466.76172 -20 20 -20 hstemhm
          545.19922 121.80078 hintmask 01101000
          154.1836 580 rmoveto
          -97 callsubr
          hintmask 10001000
          -96 callsubr
          hintmask 01101000
          -95 callsubr
          endchar
        </CharString>
        <CharString name="g">
          21 -21 497.14258 82.85742 hstem
          58 406 46.6914 156.3086 vstem
          220.40039 580 rmoveto
          -80 callsubr
          endchar
        </CharString>
        <CharString name="gcircumflex">
          21 -21 497.14258 82.85742 3.8457 136.1543 hstemhm
          58 406 -223.2998 243.59961 26.3916 156.3086 hintmask 00101000
          362.5 720 rmoveto
          -54 callsubr
          hintmask 11010100
          -263.89941 -90.0039 rmoveto
          -80 callsubr
          endchar
        </CharString>
        <CharString name="gdotaccent">
          21 -21 497.14258 82.85742 41.42871 82.85742 hstemhm
          58 406 -142.09961 81.19922 107.5918 156.3086 hintmask 00101000
          362.5 704.28613 rmoveto
          -45 callsubr
          hintmask 11010100
          -142.09961 -124.28613 rmoveto
          -80 callsubr
          endchar
        </CharString>
        <CharString name="grave">
          583.84473 136.15527 hstem
          301.60059 121.7998 vstem
          423.40039 670.0039 rmoveto
          -52 callsubr
          endchar
        </CharString>
        <CharString name="gravecomb">
          583.84473 136.15527 hstem
          301.60059 121.7998 vstem
          423.40039 670.0039 rmoveto
          -52 callsubr
          endchar
        </CharString>
        <CharString name="h">
          21 -21 331.42773 82.85742 165.71484 -20 hstem
          58 406 81.19922 121.80078 vstem
          58 580 rmoveto
          -79 callsubr
          endchar
        </CharString>
        <CharString name="hyphen">
          165.71387 82.85742 hstem
          565.5 248.57129 rmoveto
          -102 callsubr
          endchar
        </CharString>
        <CharString name="i">
          21 -21 580 -20 hstem
          159.5 406 vstem
          159.5 580 rmoveto
          -78 callsubr
          endchar
        </CharString>
        <CharString name="idieresis">
          21 -21 580 -20 61.42871 82.85742 hstemhm
          159.5 406 -324.7998 81.19922 81.20215 81.19922 hintmask 00101100
          281.2998 704.28613 rmoveto
          -48 callsubr
          162.40137 hmoveto
          -48 callsubr
          hintmask 11010000
          -284.20117 -124.28613 rmoveto
          -78 callsubr
          endchar
        </CharString>
        <CharString name="ij">
          21 -21 580 -20 hstemhm
          58 81.20117 -81.2002 121.79883 81.2002 406 hintmask 11101000
          261 580 rmoveto
          -77 callsubr
          hintmask 00011000
          -487.2002 0.1211 rmoveto
          -43 callsubr
          endchar
        </CharString>
        <CharString name="imacron">
          21 -21 580 -20 61.42871 82.85742 hstemhm
          159.5 406 -324.80078 243.60156 hintmask 00101000
          240.69922 704.28613 rmoveto
          -47 callsubr
          hintmask 11010000
          -324.80078 -124.28613 rmoveto
          -78 callsubr
          endchar
        </CharString>
        <CharString name="j">
          21 -21 580 -20 hstem
          58 81.20117 121.79883 406 vstem
          261 580 rmoveto
          -77 callsubr
          endchar
        </CharString>
        <CharString name="k">
          21 -21 580 -20 hstem
          58 580 rmoveto
          -76 callsubr
          endchar
        </CharString>
        <CharString name="kgreenlandic">
          21 -21 580 -20 hstem
          58 580 rmoveto
          -76 callsubr
          endchar
        </CharString>
        <CharString name="l">
          0 82.85742 497.14258 -20 hstem
          58 406 vstem
          58 580 rmoveto
          -75 callsubr
          endchar
        </CharString>
        <CharString name="lfblock">
          0 362.5 vstem
          362.5 720 rmoveto
          -362.5 -860 362.5 hlineto
          endchar
        </CharString>
        <CharString name="ltshade">
          -54 86 86 86 86 86 86 86 86 86 hstem
          0 72.5 72.5 72.5 72.5 72.5 72.5 72.5 72.5 72.5 vstem
          720 vmoveto
          -29 callsubr
          72.5 hmoveto
          -29 callsubr
          72.5 hmoveto
          -29 callsubr
          72.5 hmoveto
          -29 callsubr
          72.5 hmoveto
          -29 callsubr
          -652.5 -172 rmoveto
          -29 callsubr
          72.5 hmoveto
          -29 callsubr
          72.5 hmoveto
          -29 callsubr
          72.5 hmoveto
          -29 callsubr
          72.5 hmoveto
          -29 callsubr
          -652.5 -172 rmoveto
          -29 callsubr
          72.5 hmoveto
          -29 callsubr
          72.5 hmoveto
          -29 callsubr
          72.5 hmoveto
          -29 callsubr
          72.5 hmoveto
          -29 callsubr
          -652.5 -172 rmoveto
          -29 callsubr
          72.5 hmoveto
          -29 callsubr
          72.5 hmoveto
          -29 callsubr
          72.5 hmoveto
          -29 callsubr
          72.5 hmoveto
          -29 callsubr
          -652.5 -172 rmoveto
          -29 callsubr
          72.5 hmoveto
          -29 callsubr
          72.5 hmoveto
          -29 callsubr
          72.5 hmoveto
          -29 callsubr
          72.5 hmoveto
          -29 callsubr
          endchar
        </CharString>
        <CharString name="m">
          21 -21 580 -20 hstem
          58 406 81.19922 121.80078 vstem
          58 580 rmoveto
          -74 callsubr
          endchar
        </CharString>
        <CharString name="macron">
          621.42871 82.85742 hstem
          240.69922 243.60156 vstem
          240.69922 704.28613 rmoveto
          -47 callsubr
          endchar
        </CharString>
        <CharString name="n">
          21 -21 580 -20 hstem
          58 406 81.19922 121.80078 vstem
          58 580 rmoveto
          -73 callsubr
          endchar
        </CharString>
        <CharString name="o">
          21 -21 497.14258 82.85742 hstem
          545.19922 121.80078 vstem
          220.40039 580 rmoveto
          -72 callsubr
          -40.59961 -82.85742 rmoveto
          -83 callsubr
          endchar
        </CharString>
        <CharString name="odieresis">
          21 -21 497.14258 82.85742 41.42871 82.85742 hstem
          240.7002 81.19922 81.20215 81.19922 60.89844 121.80078 vstem
          281.2998 704.28613 rmoveto
          -48 callsubr
          162.40137 hmoveto
          -48 callsubr
          -223.30078 -124.28613 rmoveto
          -72 callsubr
          -40.59961 -82.85742 rmoveto
          -83 callsubr
          endchar
        </CharString>
        <CharString name="omacron">
          21 -21 497.14258 82.85742 41.42871 82.85742 hstem
          240.69922 243.60156 60.89844 121.80078 vstem
          240.69922 704.28613 rmoveto
          -47 callsubr
          -263.90039 -124.28613 rmoveto
          -72 callsubr
          -40.59961 -82.85742 rmoveto
          -83 callsubr
          endchar
        </CharString>
        <CharString name="one">
          21 -21 21 -21 580 -20 20 -20 hstemhm
          159.5 406 hintmask 10101000
          443.69922 580 rmoveto
          -98 callsubr
          endchar
        </CharString>
        <CharString name="p">
          21 -21 497.14258 82.85742 hstem
          545.20117 121.79883 vstem
          58 580 rmoveto
          -71 callsubr
          -40.59961 -82.85742 rmoveto
          -70 callsubr
          endchar
        </CharString>
        <CharString name="period">
          0.00098 82.85742 hstem
          321.90039 81.19922 vstem
          362.5 82.8584 rmoveto
          -101 callsubr
          endchar
        </CharString>
        <CharString name="plus">
          21 -21 21 -21 165.71484 82.85742 hstemhm
          321.90039 81.19922 hintmask 10110000
          321.90039 414.28516 rmoveto
          -103 callsubr
          endchar
        </CharString>
        <CharString name="q">
          21 -21 497.14258 82.85742 hstem
          545.19922 121.80078 vstem
          220.40039 580 rmoveto
          -69 callsubr
          203 hmoveto
          -68 callsubr
          81.20117 -580 rmoveto
          -67 callsubr
          endchar
        </CharString>
        <CharString name="quotedbl">
          414.28613 165.71387 hstem
          240.7002 81.2002 81.19922 81.2002 vstem
          484.2998 580 rmoveto
          -105 callsubr
          -162.39941 165.71387 rmoveto
          -105 callsubr
          endchar
        </CharString>
        <CharString name="quotesingle">
          414.28613 165.71387 hstem
          321.90039 81.19922 vstem
          403.09961 580 rmoveto
          -104 callsubr
          endchar
        </CharString>
        <CharString name="r">
          21 -21 497.14453 82.85547 hstem
          545.19922 121.80078 vstem
          58 580 rmoveto
          -66 callsubr
          -40.59961 -82.85547 rmoveto
          -65 callsubr
          endchar
        </CharString>
        <CharString name="rtblock">
          0 362.5 vstem
          hintmask 00000000
          362.5 -220 rmoveto
          -362.5 860 362.5 hlineto
          endchar
        </CharString>
        <CharString name="s">
          0 82.85742 414.28516 82.85742 hstemhm
          58.00977 507.49023 -406 507.49023 hintmask 11100000
          275.5 580 rmoveto
          -64 callsubr
          hintmask 11010000
          -63 callsubr
          hintmask 11100000
          -62 callsubr
          endchar
        </CharString>
        <CharString name="seven">
          21 -21 21 -21 497.14258 82.85742 hstemhm
          hintmask 10100000
          58 580 rmoveto
          -94 callsubr
          endchar
        </CharString>
        <CharString name="shade">
          -140 86 0 86 0 86 0 86 0 86 0 86 0 86 0 86 0 86 0 86 hstemhm
          0 72.5 0 72.5 0 72.5 0 72.5 0 72.5 0 72.5 0 72.5 0 72.5 0 72.5 0 72.5 hintmask 000000000110000000000000
          720 vmoveto
          -86 vlineto
          hintmask 000000001010000000000000
          -28 callsubr
          hintmask 000000000110000000000000
          86 vlineto
          hintmask 000000001010000000000000
          -86 vmoveto
          hintmask 000000010010000000000000
          -86 vlineto
          hintmask 000000010001000000000000
          -28 callsubr
          hintmask 000000001001000000000000
          86 vlineto
          0 vmoveto
          hintmask 000000001000100000000000
          -28 callsubr
          hintmask 000000000100100000000000
          -27 callsubr
          hintmask 000000001000100000000000
          72.5 -86 rmoveto
          hintmask 000000010000100000000000
          -86 vlineto
          hintmask 000000010000010000000000
          -28 callsubr
          hintmask 000000001000010000000000
          86 vlineto
          0 vmoveto
          hintmask 000000001000001000000000
          -28 callsubr
          hintmask 000000000100001000000000
          -27 callsubr
          hintmask 000000001000001000000000
          72.5 -86 rmoveto
          hintmask 000000010000001000000000
          -86 vlineto
          hintmask 000000010000000100000000
          -28 callsubr
          hintmask 000000001000000100000000
          86 vlineto
          0 vmoveto
          hintmask 000000001000000010000000
          -28 callsubr
          hintmask 000000000100000010000000
          -27 callsubr
          hintmask 000000001000000010000000
          72.5 -86 rmoveto
          hintmask 000000010000000010000000
          -86 vlineto
          hintmask 000000010000000001000000
          -28 callsubr
          hintmask 000000001000000001000000
          86 vlineto
          0 vmoveto
          hintmask 000000001000000000100000
          -28 callsubr
          hintmask 000000000100000000100000
          -27 callsubr
          hintmask 000000001000000000100000
          72.5 -86 rmoveto
          hintmask 000000010000000000100000
          -86 vlineto
          hintmask 000000001000000000010000
          -26 callsubr
          hintmask 000000010000000000100000
          -72.5 -86 rmoveto
          hintmask 000000010000000001000000
          -25 callsubr
          hintmask 000000100000000001000000
          -86 vlineto
          hintmask 000000100000000000100000
          -28 callsubr
          0 vmoveto
          hintmask 000001000000000000100000
          -86 vlineto
          hintmask 000000100000000000010000
          -26 callsubr
          hintmask 000001000000000000100000
          -72.5 -86 rmoveto
          hintmask 000001000000000001000000
          -25 callsubr
          hintmask 000010000000000001000000
          -86 vlineto
          hintmask 000010000000000000100000
          -28 callsubr
          0 vmoveto
          hintmask 000100000000000000100000
          -86 vlineto
          hintmask 000010000000000000010000
          -26 callsubr
          hintmask 000100000000000000100000
          -72.5 -86 rmoveto
          hintmask 000100000000000001000000
          -25 callsubr
          hintmask 001000000000000001000000
          -86 vlineto
          hintmask 001000000000000000100000
          -28 callsubr
          0 vmoveto
          hintmask 010000000000000000100000
          -86 vlineto
          hintmask 001000000000000000010000
          -26 callsubr
          hintmask 010000000000000000100000
          -72.5 -86 rmoveto
          hintmask 010000000000000001000000
          -25 callsubr
          hintmask 100000000000000001000000
          -86 vlineto
          hintmask 100000000000000000100000
          -28 callsubr
          0 vmoveto
          hintmask 100000000000000000010000
          -29 callsubr
          hintmask 100000000000000001000000
          -145 hmoveto
          hintmask 100000000000000010000000
          -25 callsubr
          hintmask 100000000000000001000000
          -24 callsubr
          hintmask 100000000000000010000000
          -72.5 86 rmoveto
          hintmask 010000000000000010000000
          86 vlineto
          hintmask 010000000000000100000000
          -25 callsubr
          hintmask 100000000000000100000000
          -86 vlineto
          0 vmoveto
          hintmask 100000000000001000000000
          -25 callsubr
          hintmask 100000000000000100000000
          -24 callsubr
          hintmask 100000000000001000000000
          -72.5 86 rmoveto
          hintmask 010000000000001000000000
          86 vlineto
          hintmask 010000000000010000000000
          -25 callsubr
          hintmask 100000000000010000000000
          -86 vlineto
          0 vmoveto
          hintmask 100000000000100000000000
          -25 callsubr
          hintmask 100000000000010000000000
          -24 callsubr
          hintmask 100000000000100000000000
          -72.5 86 rmoveto
          hintmask 010000000000100000000000
          86 vlineto
          hintmask 010000000001000000000000
          -25 callsubr
          hintmask 100000000001000000000000
          -86 vlineto
          0 vmoveto
          hintmask 100000000010000000000000
          -25 callsubr
          hintmask 100000000001000000000000
          -24 callsubr
          hintmask 100000000010000000000000
          -72.5 86 rmoveto
          hintmask 010000000010000000000000
          -23 callsubr
          72.5 86 rmoveto
          hintmask 010000000001000000000000
          -28 callsubr
          hintmask 001000000001000000000000
          86 vlineto
          hintmask 001000000010000000000000
          -25 callsubr
          0 vmoveto
          hintmask 000100000010000000000000
          -23 callsubr
          72.5 86 rmoveto
          hintmask 000100000001000000000000
          -28 callsubr
          hintmask 000010000001000000000000
          86 vlineto
          hintmask 000010000010000000000000
          -25 callsubr
          0 vmoveto
          hintmask 000001000010000000000000
          -23 callsubr
          72.5 86 rmoveto
          hintmask 000001000001000000000000
          -28 callsubr
          hintmask 000000100001000000000000
          86 vlineto
          hintmask 000000100010000000000000
          -25 callsubr
          0 vmoveto
          hintmask 000000010010000000000000
          -23 callsubr
          hintmask 000000100001000000000000
          145 hmoveto
          hintmask 000000100000100000000000
          -28 callsubr
          hintmask 000000010000100000000000
          86 vlineto
          hintmask 000000010001000000000000
          -25 callsubr
          hintmask 000000100000100000000000
          72.5 -86 rmoveto
          hintmask 000001000000100000000000
          -86 vlineto
          hintmask 000001000000010000000000
          -28 callsubr
          hintmask 000000100000010000000000
          86 vlineto
          0 vmoveto
          hintmask 000000100000001000000000
          -28 callsubr
          hintmask 000000010000001000000000
          86 vlineto
          hintmask 000000010000010000000000
          -25 callsubr
          hintmask 000000100000001000000000
          72.5 -86 rmoveto
          hintmask 000001000000001000000000
          -86 vlineto
          hintmask 000001000000000100000000
          -28 callsubr
          hintmask 000000100000000100000000
          86 vlineto
          0 vmoveto
          hintmask 000000100000000010000000
          -28 callsubr
          hintmask 000000010000000010000000
          86 vlineto
          hintmask 000000010000000100000000
          -25 callsubr
          hintmask 000000100000000010000000
          72.5 -86 rmoveto
          hintmask 000001000000000010000000
          -86 vlineto
          hintmask 000001000000000001000000
          -28 callsubr
          hintmask 000000100000000001000000
          86 vlineto
          hintmask 000001000000000010000000
          -72.5 -86 rmoveto
          hintmask 000001000000000100000000
          -25 callsubr
          hintmask 000010000000000100000000
          -86 vlineto
          hintmask 000010000000000010000000
          -28 callsubr
          0 vmoveto
          hintmask 000100000000000010000000
          -86 vlineto
          hintmask 000100000000000001000000
          -28 callsubr
          hintmask 000010000000000001000000
          86 vlineto
          hintmask 000100000000000010000000
          -72.5 -86 rmoveto
          hintmask 000100000000000100000000
          -25 callsubr
          hintmask 001000000000000100000000
          -86 vlineto
          hintmask 001000000000000010000000
          -28 callsubr
          0 vmoveto
          hintmask 010000000000000010000000
          -86 vlineto
          hintmask 010000000000000001000000
          -28 callsubr
          hintmask 001000000000000001000000
          86 vlineto
          hintmask 001000000000000100000000
          -145 hmoveto
          hintmask 001000000000001000000000
          -25 callsubr
          hintmask 010000000000001000000000
          -86 vlineto
          hintmask 010000000000000100000000
          -28 callsubr
          hintmask 001000000000001000000000
          -72.5 86 rmoveto
          hintmask 000100000000001000000000
          86 vlineto
          hintmask 000100000000010000000000
          -25 callsubr
          hintmask 001000000000010000000000
          -86 vlineto
          0 vmoveto
          hintmask 001000000000100000000000
          -25 callsubr
          hintmask 010000000000100000000000
          -86 vlineto
          hintmask 010000000000010000000000
          -28 callsubr
          hintmask 001000000000100000000000
          -72.5 86 rmoveto
          hintmask 000100000000100000000000
          86 vlineto
          hintmask 000100000001000000000000
          -25 callsubr
          hintmask 001000000001000000000000
          -86 vlineto
          hintmask 000100000000100000000000
          72.5 86 rmoveto
          hintmask 000100000000010000000000
          -28 callsubr
          hintmask 000010000000010000000000
          86 vlineto
          hintmask 000010000000100000000000
          -25 callsubr
          0 vmoveto
          hintmask 000001000000100000000000
          86 vlineto
          hintmask 000001000001000000000000
          -25 callsubr
          hintmask 000010000001000000000000
          -86 vlineto
          hintmask 000010000000010000000000
          145 hmoveto
          hintmask 000010000000001000000000
          -28 callsubr
          hintmask 000001000000001000000000
          86 vlineto
          hintmask 000001000000010000000000
          -25 callsubr
          hintmask 000010000000001000000000
          72.5 -86 rmoveto
          hintmask 000100000000001000000000
          -86 vlineto
          hintmask 000100000000000100000000
          -28 callsubr
          hintmask 000010000000000100000000
          86 vlineto
          endchar
        </CharString>
        <CharString name="space">
          endchar
        </CharString>
        <CharString name="t">
          21 -21 497.14258 82.85742 hstem
          159.5 406 vstem
          58 580 rmoveto
          -61 callsubr
          endchar
        </CharString>
        <CharString name="twodotenleader">
          0 82.85742 hstem
          240.7002 81.19922 81.20117 81.19922 vstem
          443.7002 82.85742 rmoveto
          -36 callsubr
          -162.40039 hmoveto
          -35 callsubr
          endchar
        </CharString>
        <CharString name="u">
          21 -21 580 -20 hstem
          58 406 81.20117 121.79883 vstem
          58 580 rmoveto
          -60 callsubr
          endchar
        </CharString>
        <CharString name="u1F4EF">
          68.3584 121.74219 116.92773 65.83008 hstem
          58.0039 172.33789 189.16992 65.8164 100.47266 81.19922 vstem
          58.0039 414.27832 rmoveto
          -0.00098 vlineto
          0 -48.75684 16.69922 -74.29883 20.57617 -42.78906 4.03223 -8.38574 7.12695 -13.20508 4.74902 -7.88574 4.74902 -7.88672 8.25195 -12.33105 5.41895 -7.30762 5.41895 -7.3086 9.29492 -11.33398 6.03418 -6.65625 37.29785 -41.15332 71.85547 -41.54785 51.2373 -10.03906 14.17969 -2.77832 23.18555 -2.25488 14.38867 0 rrcurveto
          5.81543 0.10156 9.42383 0.53516 5.7959 0.5586 0.14355 0.01855 0.23242 0.03125 0.14355 0.01953 7.49414 0.63574 12.09961 1.64551 7.41406 1.39258 1.0957 0.18164 1.77734 0.3086 1.09375 0.19727 6.73145 1.37988 10.8291 2.73926 6.61133 1.9961 1.73242 0.48438 2.80469 0.81836 1.72266 0.52539 rrcurveto
          5.89062 1.94434 9.44727 3.5459 5.75 2.42578 2.36328 0.94043 3.81445 1.58984 2.33789 1.01855 2.85352 1.21289 4.59766 2.0625 2.8125 1.32812 -0.36426 -0.02051 -0.58984 -0.0332 -0.36426 -0.01953 100.74707 49.80957 81.97949 141.73047 0.26367 124.82324 rrcurveto
          -81.19922 hlineto
          -0.10254 -81.46973 -50.71973 -98.7168 -62.39258 -40.16309 7.00977 14.26367 5.70898 24.47656 0.02344 15.89453 rrcurveto
          0.00098 vlineto
          0 68.60547 -55.67969 55.67969 -68.60547 0.00098 -43.32324 -0.04785 -50.23926 -31.80273 -18.57812 -39.1377 -10.12793 29.95996 -8.31543 50.3623 -0.11719 32.09375 rrcurveto
          -40.59961 0 -131.74219 0 rlineto
          303.04688 -107.25781 rmoveto
          0.00098 hlineto
          32.27246 26.1914 -26.19238 -32.27148 hvcurveto
          -0.00098 vlineto
          -0.00098 -32.27148 -26.1914 -26.1914 -32.27148 0 rrcurveto
          -0.00098 0 -0.00098 0 rlineto
          -32.27148 0 -26.1914 26.1914 -0.00098 32.27148 rrcurveto
          0.00098 vlineto
          32.27148 26.1914 26.19238 32.27246 vhcurveto
          endchar
        </CharString>
        <CharString name="udieresis">
          21 -21 580 -20 61.42871 82.85742 hstemhm
          58 406 -223.2998 81.19922 81.20215 81.19922 60.90039 121.79883 hintmask 00101100
          281.2998 704.28613 rmoveto
          -48 callsubr
          162.40137 hmoveto
          -48 callsubr
          hintmask 11010010
          -385.70117 -124.28613 rmoveto
          -60 callsubr
          endchar
        </CharString>
        <CharString name="umacron">
          21 -21 580 -20 61.42871 82.85742 hstemhm
          58 406 -223.30078 243.60156 60.90039 121.79883 hintmask 00101000
          240.69922 704.28613 rmoveto
          -47 callsubr
          hintmask 11010100
          -426.30078 -124.28613 rmoveto
          -60 callsubr
          endchar
        </CharString>
        <CharString name="underscore">
          -140 82.85742 hstem
          725 -57.14258 rmoveto
          -53 callsubr
          endchar
        </CharString>
        <CharString name="underscoredbl">
          -248.57129 82.85742 82.85645 82.85742 hstem
          725 hmoveto
          -53 callsubr
          -82.85645 vmoveto
          -53 callsubr
          endchar
        </CharString>
        <CharString name="uni00A0">
          endchar
        </CharString>
        <CharString name="uni0302">
          583.8457 136.1543 hstem
          240.7002 243.59961 vstem
          362.5 720 rmoveto
          -54 callsubr
          endchar
        </CharString>
        <CharString name="uni0304">
          621.42871 82.85742 hstem
          240.69922 243.60156 vstem
          240.69922 704.28613 rmoveto
          -47 callsubr
          endchar
        </CharString>
        <CharString name="uni0307">
          621.42871 82.85742 hstem
          321.90039 81.19922 vstem
          362.5 704.28613 rmoveto
          -45 callsubr
          endchar
        </CharString>
        <CharString name="uni0308">
          621.42871 82.85742 hstem
          240.7002 81.19922 81.20215 81.19922 vstem
          281.2998 704.28613 rmoveto
          -48 callsubr
          162.40137 hmoveto
          -48 callsubr
          endchar
        </CharString>
        <CharString name="uni030B">
          583.84473 136.15527 hstem
          220.39941 284.20215 vstem
          220.39941 670.0039 rmoveto
          -42 callsubr
          40.60059 -49.9961 rmoveto
          -42 callsubr
          endchar
        </CharString>
        <CharString name="uni030C">
          583.8457 136.1543 hstem
          240.7002 243.59961 vstem
          362.5 583.8457 rmoveto
          -44 callsubr
          endchar
        </CharString>
        <CharString name="uni030F">
          583.84473 136.15527 hstem
          220.39844 284.20215 vstem
          hintmask 00000000
          504.60059 670.0039 rmoveto
          -41 callsubr
          -40.60059 -49.9961 rmoveto
          -41 callsubr
          endchar
        </CharString>
        <CharString name="uni0316">
          -140 136.15527 hstem
          301.59961 121.7998 vstem
          hintmask 00000000
          301.59961 -90.0039 rmoveto
          121.7998 -49.9961 0 82.85742 -121.7998 53.29785 rlineto
          endchar
        </CharString>
        <CharString name="uni0317">
          -140 136.15527 hstem
          301.60059 121.7998 vstem
          hintmask 00000000
          423.40039 -90.0039 rmoveto
          -121.7998 -49.9961 0 82.85742 121.7998 53.29785 rlineto
          endchar
        </CharString>
        <CharString name="uni0324">
          -124.28613 82.85742 hstem
          240.7002 81.19922 81.20215 81.19922 vstem
          hintmask 00000000
          281.2998 -124.28613 rmoveto
          -39 callsubr
          162.40137 hmoveto
          -39 callsubr
          endchar
        </CharString>
        <CharString name="uni032C">
          -140 136.1543 hstem
          240.7002 243.59961 vstem
          hintmask 00000000
          362.5 -140 rmoveto
          -121.7998 49.9961 0 86.1582 121.7998 -53.29688 121.7998 53.29688 0 -86.1582 rlineto
          endchar
        </CharString>
        <CharString name="uni032D">
          -140 136.1543 hstem
          240.7002 243.59961 vstem
          hintmask 00000000
          362.5 -3.8457 rmoveto
          121.7998 -49.9961 0 -86.1582 -121.7998 53.29688 -121.7998 -53.29688 0 86.1582 rlineto
          endchar
        </CharString>
        <CharString name="uni0331">
          -124.28613 82.85742 hstem
          240.69922 243.60156 vstem
          hintmask 00000000
          240.69922 -124.28613 rmoveto
          -38 callsubr
          endchar
        </CharString>
        <CharString name="uni16C9">
          21 -21 21 -21 497.14258 82.85742 hstemhm
          hintmask 10100000
          362.5 hmoveto
          -37 callsubr
          223.30078 -61.83984 rmoveto
          -151.01953 107.34473 -56.04102 285.92285 414.1211 0 -56.04102 -285.92285 rlineto
          endchar
        </CharString>
        <CharString name="uni16CA">
          21 -21 21 -21 580 -20 20 -20 hstemhm
          hintmask 10100000
          362.5 hmoveto
          -37 callsubr
          endchar
        </CharString>
        <CharString name="uni1E02">
          0 103.03711 165.71484 82.85742 145.5332 82.85742 41.42871 82.85742 hstemhm
          58 406 -142.09961 81.19922 142.09961 101.19727 -101.19727 121.80078 hintmask 00010100
          362.5 704.28613 rmoveto
          -45 callsubr
          hintmask 11101001
          -304.5 -124.28613 rmoveto
          -89 callsubr
          hintmask 11101010
          -88 callsubr
          -82.85742 vmoveto
          -87 callsubr
          -82.85742 vmoveto
          hintmask 11101001
          -86 callsubr
          endchar
        </CharString>
        <CharString name="uni1E03">
          0 103.03711 165.71484 82.85742 145.5332 82.85742 41.42871 82.85742 hstemhm
          58 406 -142.09961 81.19922 142.09961 101.19727 -101.19727 121.80078 hintmask 00010100
          362.5 704.28613 rmoveto
          -45 callsubr
          hintmask 11101001
          -304.5 -124.28613 rmoveto
          -89 callsubr
          hintmask 11101010
          -88 callsubr
          -82.85742 vmoveto
          -87 callsubr
          -82.85742 vmoveto
          hintmask 11101001
          -86 callsubr
          endchar
        </CharString>
        <CharString name="uni1E04">
          -124.28613 82.85742 41.42871 103.03711 165.71484 82.85742 145.5332 82.85742 hstemhm
          58 406 -142.09961 81.19922 142.09961 101.19727 -101.19727 121.80078 hintmask 10000100
          362.5 -124.28613 rmoveto
          -40 callsubr
          hintmask 01111001
          -304.5 704.28613 rmoveto
          -89 callsubr
          hintmask 01111010
          -88 callsubr
          -82.85742 vmoveto
          -87 callsubr
          -82.85742 vmoveto
          hintmask 01111001
          -86 callsubr
          endchar
        </CharString>
        <CharString name="uni1E05">
          -124.28613 82.85742 41.42871 103.03711 165.71484 82.85742 145.5332 82.85742 hstemhm
          58 406 -142.09961 81.19922 142.09961 101.19727 -101.19727 121.80078 hintmask 10000100
          362.5 -124.28613 rmoveto
          -40 callsubr
          hintmask 01111001
          -304.5 704.28613 rmoveto
          -89 callsubr
          hintmask 01111010
          -88 callsubr
          -82.85742 vmoveto
          -87 callsubr
          -82.85742 vmoveto
          hintmask 01111001
          -86 callsubr
          endchar
        </CharString>
        <CharString name="uni1E06">
          -124.28613 82.85742 41.42871 103.03711 165.71484 82.85742 145.5332 82.85742 hstemhm
          58 406 -223.30078 243.60156 60.89844 101.19727 -101.19727 121.80078 hintmask 10000100
          240.69922 -124.28613 rmoveto
          -38 callsubr
          hintmask 01111001
          -426.30078 704.28613 rmoveto
          -89 callsubr
          hintmask 01111010
          -88 callsubr
          -82.85742 vmoveto
          -87 callsubr
          -82.85742 vmoveto
          hintmask 01111001
          -86 callsubr
          endchar
        </CharString>
        <CharString name="uni1E07">
          -124.28613 82.85742 41.42871 103.03711 165.71484 82.85742 145.5332 82.85742 hstemhm
          58 406 -223.30078 243.60156 60.89844 101.19727 -101.19727 121.80078 hintmask 10000100
          240.69922 -124.28613 rmoveto
          -38 callsubr
          hintmask 01111001
          -426.30078 704.28613 rmoveto
          -89 callsubr
          hintmask 01111010
          -88 callsubr
          -82.85742 vmoveto
          -87 callsubr
          -82.85742 vmoveto
          hintmask 01111001
          -86 callsubr
          endchar
        </CharString>
        <CharString name="uni1E0A">
          21 -21 497.14258 82.85742 41.42871 82.85742 hstemhm
          58 406 -142.09961 81.19922 142.09961 121.80078 hintmask 00101000
          362.5 704.28613 rmoveto
          -45 callsubr
          hintmask 11010100
          -304.5 -124.28613 rmoveto
          -84 callsubr
          -40.59961 -82.85742 rmoveto
          -83 callsubr
          endchar
        </CharString>
        <CharString name="uni1E0B">
          21 -21 497.14258 82.85742 41.42871 82.85742 hstemhm
          58 406 -142.09961 81.19922 142.09961 121.80078 hintmask 00101000
          362.5 704.28613 rmoveto
          -45 callsubr
          hintmask 11010100
          -304.5 -124.28613 rmoveto
          -84 callsubr
          -40.59961 -82.85742 rmoveto
          -83 callsubr
          endchar
        </CharString>
        <CharString name="uni1E0C">
          -124.28613 82.85742 62.42871 -21 497.14258 82.85742 hstemhm
          58 406 -142.09961 81.19922 142.09961 121.80078 hintmask 10001000
          362.5 -124.28613 rmoveto
          -40 callsubr
          hintmask 01110100
          -304.5 704.28613 rmoveto
          -84 callsubr
          -40.59961 -82.85742 rmoveto
          -83 callsubr
          endchar
        </CharString>
        <CharString name="uni1E0D">
          -124.28613 82.85742 62.42871 -21 497.14258 82.85742 hstemhm
          58 406 -142.09961 81.19922 142.09961 121.80078 hintmask 10001000
          362.5 -124.28613 rmoveto
          -40 callsubr
          hintmask 01110100
          -304.5 704.28613 rmoveto
          -84 callsubr
          -40.59961 -82.85742 rmoveto
          -83 callsubr
          endchar
        </CharString>
        <CharString name="uni1E0E">
          -124.28613 82.85742 62.42871 -21 497.14258 82.85742 hstemhm
          58 406 -223.30078 243.60156 60.89844 121.80078 hintmask 10001000
          240.69922 -124.28613 rmoveto
          -38 callsubr
          hintmask 01110100
          -426.30078 704.28613 rmoveto
          -84 callsubr
          -40.59961 -82.85742 rmoveto
          -83 callsubr
          endchar
        </CharString>
        <CharString name="uni1E0F">
          -124.28613 82.85742 62.42871 -21 497.14258 82.85742 hstemhm
          58 406 -223.30078 243.60156 60.89844 121.80078 hintmask 10001000
          240.69922 -124.28613 rmoveto
          -38 callsubr
          hintmask 01110100
          -426.30078 704.28613 rmoveto
          -84 callsubr
          -40.59961 -82.85742 rmoveto
          -83 callsubr
          endchar
        </CharString>
        <CharString name="uni1E1E">
          21 -21 331.42773 82.85742 82.85742 82.85742 41.42871 82.85742 hstemhm
          58 406 -142.09961 81.19922 hintmask 00010100
          362.5 704.28613 rmoveto
          -45 callsubr
          hintmask 11101000
          -304.5 -124.28613 rmoveto
          -81 callsubr
          endchar
        </CharString>
        <CharString name="uni1E1F">
          21 -21 331.42773 82.85742 82.85742 82.85742 41.42871 82.85742 hstemhm
          58 406 -142.09961 81.19922 hintmask 00010100
          362.5 704.28613 rmoveto
          -45 callsubr
          hintmask 11101000
          -304.5 -124.28613 rmoveto
          -81 callsubr
          endchar
        </CharString>
        <CharString name="uni1E20">
          21 -21 497.14258 82.85742 41.42871 82.85742 hstemhm
          58 406 -223.30078 243.60156 26.39062 156.3086 hintmask 00101000
          240.69922 704.28613 rmoveto
          -47 callsubr
          hintmask 11010100
          -263.90039 -124.28613 rmoveto
          -80 callsubr
          endchar
        </CharString>
        <CharString name="uni1E21">
          21 -21 497.14258 82.85742 41.42871 82.85742 hstemhm
          58 406 -223.30078 243.60156 26.39062 156.3086 hintmask 00101000
          240.69922 704.28613 rmoveto
          -47 callsubr
          hintmask 11010100
          -263.90039 -124.28613 rmoveto
          -80 callsubr
          endchar
        </CharString>
        <CharString name="uni1E22">
          21 -21 331.42773 82.85742 165.71484 -20 61.42871 82.85742 hstemhm
          58 406 -142.09961 81.19922 142.09961 121.80078 hintmask 00010100
          362.5 704.28613 rmoveto
          -45 callsubr
          hintmask 11101010
          -304.5 -124.28613 rmoveto
          -79 callsubr
          endchar
        </CharString>
        <CharString name="uni1E23">
          21 -21 331.42773 82.85742 165.71484 -20 61.42871 82.85742 hstemhm
          58 406 -142.09961 81.19922 142.09961 121.80078 hintmask 00010100
          362.5 704.28613 rmoveto
          -45 callsubr
          hintmask 11101010
          -304.5 -124.28613 rmoveto
          -79 callsubr
          endchar
        </CharString>
        <CharString name="uni1E24">
          -124.28613 82.85742 62.42871 -21 331.42773 82.85742 165.71484 -20 hstemhm
          58 406 -142.09961 81.19922 142.09961 121.80078 hintmask 10000100
          362.5 -124.28613 rmoveto
          -40 callsubr
          hintmask 01111010
          -304.5 704.28613 rmoveto
          -79 callsubr
          endchar
        </CharString>
        <CharString name="uni1E25">
          -124.28613 82.85742 62.42871 -21 331.42773 82.85742 165.71484 -20 hstemhm
          58 406 -142.09961 81.19922 142.09961 121.80078 hintmask 10000100
          362.5 -124.28613 rmoveto
          -40 callsubr
          hintmask 01111010
          -304.5 704.28613 rmoveto
          -79 callsubr
          endchar
        </CharString>
        <CharString name="uni1E26">
          21 -21 331.42773 82.85742 165.71484 -20 61.42871 82.85742 hstemhm
          58 406 -223.2998 81.19922 81.20215 81.19922 60.89844 121.80078 hintmask 00010110
          281.2998 704.28613 rmoveto
          -48 callsubr
          162.40137 hmoveto
          -48 callsubr
          hintmask 11101001
          -385.70117 -124.28613 rmoveto
          -79 callsubr
          endchar
        </CharString>
        <CharString name="uni1E27">
          21 -21 331.42773 82.85742 165.71484 -20 61.42871 82.85742 hstemhm
          58 406 -223.2998 81.19922 81.20215 81.19922 60.89844 121.80078 hintmask 00010110
          281.2998 704.28613 rmoveto
          -48 callsubr
          162.40137 hmoveto
          -48 callsubr
          hintmask 11101001
          -385.70117 -124.28613 rmoveto
          -79 callsubr
          endchar
        </CharString>
        <CharString name="uni1E32">
          -124.28613 82.85742 62.42871 -21 580 -20 hstem
          321.90039 81.19922 vstem
          hintmask 00000000
          362.5 -124.28613 rmoveto
          -40 callsubr
          -304.5 704.28613 rmoveto
          -76 callsubr
          endchar
        </CharString>
        <CharString name="uni1E33">
          -124.28613 82.85742 62.42871 -21 580 -20 hstem
          321.90039 81.19922 vstem
          hintmask 00000000
          362.5 -124.28613 rmoveto
          -40 callsubr
          -304.5 704.28613 rmoveto
          -76 callsubr
          endchar
        </CharString>
        <CharString name="uni1E34">
          -124.28613 82.85742 62.42871 -21 580 -20 hstem
          240.69922 243.60156 vstem
          hintmask 00000000
          240.69922 -124.28613 rmoveto
          -38 callsubr
          -426.30078 704.28613 rmoveto
          -76 callsubr
          endchar
        </CharString>
        <CharString name="uni1E35">
          -124.28613 82.85742 62.42871 -21 580 -20 hstem
          240.69922 243.60156 vstem
          hintmask 00000000
          240.69922 -124.28613 rmoveto
          -38 callsubr
          -426.30078 704.28613 rmoveto
          -76 callsubr
          endchar
        </CharString>
        <CharString name="uni1E36">
          -124.28613 82.85742 41.42871 82.85742 497.14258 -20 hstemhm
          58 406 -142.09961 81.19922 hintmask 10001000
          362.5 -124.28613 rmoveto
          -40 callsubr
          hintmask 01110000
          -304.5 704.28613 rmoveto
          -75 callsubr
          endchar
        </CharString>
        <CharString name="uni1E37">
          -124.28613 82.85742 41.42871 82.85742 497.14258 -20 hstemhm
          58 406 -142.09961 81.19922 hintmask 10001000
          362.5 -124.28613 rmoveto
          -40 callsubr
          hintmask 01110000
          -304.5 704.28613 rmoveto
          -75 callsubr
          endchar
        </CharString>
        <CharString name="uni1E38">
          -124.28613 82.85742 41.42871 82.85742 497.14258 -20 61.42871 82.85742 hstemhm
          58 406 -223.30078 243.60156 -162.40039 81.19922 hintmask 00010100
          240.69922 704.28613 rmoveto
          -47 callsubr
          hintmask 10000010
          -121.80078 -828.57227 rmoveto
          -40 callsubr
          hintmask 01101000
          -304.5 704.28613 rmoveto
          -75 callsubr
          endchar
        </CharString>
        <CharString name="uni1E39">
          -124.28613 82.85742 41.42871 82.85742 497.14258 -20 61.42871 82.85742 hstemhm
          58 406 -223.30078 243.60156 -162.40039 81.19922 hintmask 00010100
          240.69922 704.28613 rmoveto
          -47 callsubr
          hintmask 10000010
          -121.80078 -828.57227 rmoveto
          -40 callsubr
          hintmask 01101000
          -304.5 704.28613 rmoveto
          -75 callsubr
          endchar
        </CharString>
        <CharString name="uni1E3A">
          -124.28613 82.85742 41.42871 82.85742 497.14258 -20 hstemhm
          58 406 -223.30078 243.60156 hintmask 10001000
          240.69922 -124.28613 rmoveto
          -38 callsubr
          hintmask 01110000
          -426.30078 704.28613 rmoveto
          -75 callsubr
          endchar
        </CharString>
        <CharString name="uni1E3B">
          -124.28613 82.85742 41.42871 82.85742 497.14258 -20 hstemhm
          58 406 -223.30078 243.60156 hintmask 10001000
          240.69922 -124.28613 rmoveto
          -38 callsubr
          hintmask 01110000
          -426.30078 704.28613 rmoveto
          -75 callsubr
          endchar
        </CharString>
        <CharString name="uni1E40">
          21 -21 580 -20 61.42871 82.85742 hstemhm
          58 406 -142.09961 81.19922 142.09961 121.80078 hintmask 00101000
          362.5 704.28613 rmoveto
          -45 callsubr
          hintmask 11010100
          -304.5 -124.28613 rmoveto
          -74 callsubr
          endchar
        </CharString>
        <CharString name="uni1E41">
          21 -21 580 -20 61.42871 82.85742 hstemhm
          58 406 -142.09961 81.19922 142.09961 121.80078 hintmask 00101000
          362.5 704.28613 rmoveto
          -45 callsubr
          hintmask 11010100
          -304.5 -124.28613 rmoveto
          -74 callsubr
          endchar
        </CharString>
        <CharString name="uni1E42">
          -124.28613 82.85742 62.42871 -21 580 -20 hstemhm
          58 406 -142.09961 81.19922 142.09961 121.80078 hintmask 10001000
          362.5 -124.28613 rmoveto
          -40 callsubr
          hintmask 01110100
          -304.5 704.28613 rmoveto
          -74 callsubr
          endchar
        </CharString>
        <CharString name="uni1E43">
          -124.28613 82.85742 62.42871 -21 580 -20 hstemhm
          58 406 -142.09961 81.19922 142.09961 121.80078 hintmask 10001000
          362.5 -124.28613 rmoveto
          -40 callsubr
          hintmask 01110100
          -304.5 704.28613 rmoveto
          -74 callsubr
          endchar
        </CharString>
        <CharString name="uni1E44">
          21 -21 580 -20 61.42871 82.85742 hstemhm
          58 406 -142.09961 81.19922 142.09961 121.80078 hintmask 00101000
          362.5 704.28613 rmoveto
          -45 callsubr
          hintmask 11010100
          -304.5 -124.28613 rmoveto
          -73 callsubr
          endchar
        </CharString>
        <CharString name="uni1E45">
          21 -21 580 -20 61.42871 82.85742 hstemhm
          58 406 -142.09961 81.19922 142.09961 121.80078 hintmask 00101000
          362.5 704.28613 rmoveto
          -45 callsubr
          hintmask 11010100
          -304.5 -124.28613 rmoveto
          -73 callsubr
          endchar
        </CharString>
        <CharString name="uni1E46">
          -124.28613 82.85742 62.42871 -21 580 -20 hstemhm
          58 406 -142.09961 81.19922 142.09961 121.80078 hintmask 10001000
          362.5 -124.28613 rmoveto
          -40 callsubr
          hintmask 01110100
          -304.5 704.28613 rmoveto
          -73 callsubr
          endchar
        </CharString>
        <CharString name="uni1E47">
          -124.28613 82.85742 62.42871 -21 580 -20 hstemhm
          58 406 -142.09961 81.19922 142.09961 121.80078 hintmask 10001000
          362.5 -124.28613 rmoveto
          -40 callsubr
          hintmask 01110100
          -304.5 704.28613 rmoveto
          -73 callsubr
          endchar
        </CharString>
        <CharString name="uni1E48">
          -124.28613 82.85742 62.42871 -21 580 -20 hstemhm
          58 406 -223.30078 243.60156 60.89844 121.80078 hintmask 10001000
          240.69922 -124.28613 rmoveto
          -38 callsubr
          hintmask 01110100
          -426.30078 704.28613 rmoveto
          -73 callsubr
          endchar
        </CharString>
        <CharString name="uni1E49">
          -124.28613 82.85742 62.42871 -21 580 -20 hstemhm
          58 406 -223.30078 243.60156 60.89844 121.80078 hintmask 10001000
          240.69922 -124.28613 rmoveto
          -38 callsubr
          hintmask 01110100
          -426.30078 704.28613 rmoveto
          -73 callsubr
          endchar
        </CharString>
        <CharString name="uni1E56">
          21 -21 497.14258 82.85742 41.42871 82.85742 hstem
          321.90039 81.19922 142.10156 121.79883 vstem
          362.5 704.28613 rmoveto
          -45 callsubr
          -304.5 -124.28613 rmoveto
          -71 callsubr
          -40.59961 -82.85742 rmoveto
          -70 callsubr
          endchar
        </CharString>
        <CharString name="uni1E57">
          21 -21 497.14258 82.85742 41.42871 82.85742 hstem
          321.90039 81.19922 142.10156 121.79883 vstem
          362.5 704.28613 rmoveto
          -45 callsubr
          -304.5 -124.28613 rmoveto
          -71 callsubr
          -40.59961 -82.85742 rmoveto
          -70 callsubr
          endchar
        </CharString>
        <CharString name="uni1E58">
          21 -21 497.14453 82.85547 41.42871 82.85742 hstem
          321.90039 81.19922 142.09961 121.80078 vstem
          362.5 704.28613 rmoveto
          -45 callsubr
          -304.5 -124.28613 rmoveto
          -66 callsubr
          -40.59961 -82.85547 rmoveto
          -65 callsubr
          endchar
        </CharString>
        <CharString name="uni1E59">
          -124.28613 82.85742 62.42871 -21 580 -20 hstemhm
          58 406 -223.30078 243.60156 60.89844 121.80078 hintmask 10001000
          240.69922 -124.28613 rmoveto
          -38 callsubr
          hintmask 01110100
          -426.30078 704.28613 rmoveto
          -73 callsubr
          endchar
        </CharString>
        <CharString name="uni1E5A">
          -124.28613 82.85742 62.42871 -21 497.14453 82.85547 hstem
          321.90039 81.19922 142.09961 121.80078 vstem
          hintmask 00000000
          362.5 -124.28613 rmoveto
          -40 callsubr
          -304.5 704.28613 rmoveto
          -66 callsubr
          -40.59961 -82.85547 rmoveto
          -65 callsubr
          endchar
        </CharString>
        <CharString name="uni1E5B">
          -124.28613 82.85742 62.42871 -21 497.14453 82.85547 hstem
          321.90039 81.19922 142.09961 121.80078 vstem
          hintmask 00000000
          362.5 -124.28613 rmoveto
          -40 callsubr
          -304.5 704.28613 rmoveto
          -66 callsubr
          -40.59961 -82.85547 rmoveto
          -65 callsubr
          endchar
        </CharString>
        <CharString name="uni1E5C">
          -124.28613 82.85742 62.42871 -21 497.14453 82.85547 41.42871 82.85742 hstemhm
          240.69922 243.60156 -162.40039 81.19922 142.09961 121.80078 hintmask 00011000
          240.69922 704.28613 rmoveto
          -47 callsubr
          hintmask 11100110
          -121.80078 -828.57227 rmoveto
          -40 callsubr
          -304.5 704.28613 rmoveto
          -66 callsubr
          -40.59961 -82.85547 rmoveto
          -65 callsubr
          endchar
        </CharString>
        <CharString name="uni1E5D">
          -124.28613 82.85742 62.42871 -21 497.14453 82.85547 41.42871 82.85742 hstemhm
          240.69922 243.60156 -162.40039 81.19922 142.09961 121.80078 hintmask 00011000
          240.69922 704.28613 rmoveto
          -47 callsubr
          hintmask 11100110
          -121.80078 -828.57227 rmoveto
          -40 callsubr
          -304.5 704.28613 rmoveto
          -66 callsubr
          -40.59961 -82.85547 rmoveto
          -65 callsubr
          endchar
        </CharString>
        <CharString name="uni1E5E">
          -124.28613 82.85742 62.42871 -21 497.14453 82.85547 hstem
          240.69922 243.60156 60.89844 121.80078 vstem
          hintmask 00000000
          240.69922 -124.28613 rmoveto
          -38 callsubr
          -426.30078 704.28613 rmoveto
          -66 callsubr
          -40.59961 -82.85547 rmoveto
          -65 callsubr
          endchar
        </CharString>
        <CharString name="uni1E5F">
          -124.28613 82.85742 62.42871 -21 497.14453 82.85547 hstem
          240.69922 243.60156 60.89844 121.80078 vstem
          hintmask 00000000
          240.69922 -124.28613 rmoveto
          -38 callsubr
          -426.30078 704.28613 rmoveto
          -66 callsubr
          -40.59961 -82.85547 rmoveto
          -65 callsubr
          endchar
        </CharString>
        <CharString name="uni1E60">
          0 82.85742 414.28516 82.85742 41.42871 82.85742 hstemhm
          58.00977 507.49023 -406 507.49023 -345.08984 81.19922 hintmask 00100100
          362.5 704.28613 rmoveto
          -45 callsubr
          hintmask 11010000
          -87 -124.28613 rmoveto
          -64 callsubr
          hintmask 11001000
          -63 callsubr
          hintmask 11010000
          -62 callsubr
          endchar
        </CharString>
        <CharString name="uni1E61">
          0 82.85742 414.28516 82.85742 41.42871 82.85742 hstemhm
          58.00977 507.49023 -406 507.49023 -345.08984 81.19922 hintmask 00100100
          362.5 704.28613 rmoveto
          -45 callsubr
          hintmask 11010000
          -87 -124.28613 rmoveto
          -64 callsubr
          hintmask 11001000
          -63 callsubr
          hintmask 11010000
          -62 callsubr
          endchar
        </CharString>
        <CharString name="uni1E62">
          -124.28613 82.85742 41.42871 82.85742 414.28516 82.85742 hstemhm
          58.00977 507.49023 -406 507.49023 -345.08984 81.19922 hintmask 10000100
          362.5 -124.28613 rmoveto
          -40 callsubr
          hintmask 01110000
          -87 704.28613 rmoveto
          -64 callsubr
          hintmask 01101000
          -63 callsubr
          hintmask 01110000
          -62 callsubr
          endchar
        </CharString>
        <CharString name="uni1E63">
          -124.28613 82.85742 41.42871 82.85742 414.28516 82.85742 hstemhm
          58.00977 507.49023 -406 507.49023 -345.08984 81.19922 hintmask 10000100
          362.5 -124.28613 rmoveto
          -40 callsubr
          hintmask 01110000
          -87 704.28613 rmoveto
          -64 callsubr
          hintmask 01101000
          -63 callsubr
          hintmask 01110000
          -62 callsubr
          endchar
        </CharString>
        <CharString name="uni1E68">
          -124.28613 82.85742 41.42871 82.85742 414.28516 82.85742 41.42871 82.85742 hstemhm
          58.00977 507.49023 -406 507.49023 -345.08984 81.19922 hintmask 00010010
          362.5 704.28613 rmoveto
          -45 callsubr
          hintmask 10000010
          -828.57227 vmoveto
          -40 callsubr
          hintmask 01101000
          -87 704.28613 rmoveto
          -64 callsubr
          hintmask 01100100
          -63 callsubr
          hintmask 01101000
          -62 callsubr
          endchar
        </CharString>
        <CharString name="uni1E69">
          -124.28613 82.85742 41.42871 82.85742 414.28516 82.85742 41.42871 82.85742 hstemhm
          58.00977 507.49023 -406 507.49023 -345.08984 81.19922 hintmask 00010010
          362.5 704.28613 rmoveto
          -45 callsubr
          hintmask 10000010
          -828.57227 vmoveto
          -40 callsubr
          hintmask 01101000
          -87 704.28613 rmoveto
          -64 callsubr
          hintmask 01100100
          -63 callsubr
          hintmask 01101000
          -62 callsubr
          endchar
        </CharString>
        <CharString name="uni1E6A">
          21 -21 497.14258 82.85742 41.42871 82.85742 hstemhm
          159.5 406 -243.59961 81.19922 hintmask 00101000
          362.5 704.28613 rmoveto
          -45 callsubr
          hintmask 11010000
          -304.5 -124.28613 rmoveto
          -61 callsubr
          endchar
        </CharString>
        <CharString name="uni1E6B">
          21 -21 497.14258 82.85742 41.42871 82.85742 hstemhm
          159.5 406 -243.59961 81.19922 hintmask 00101000
          362.5 704.28613 rmoveto
          -45 callsubr
          hintmask 11010000
          -304.5 -124.28613 rmoveto
          -61 callsubr
          endchar
        </CharString>
        <CharString name="uni1E6C">
          -124.28613 82.85742 62.42871 -21 497.14258 82.85742 hstemhm
          159.5 406 -243.59961 81.19922 hintmask 10001000
          362.5 -124.28613 rmoveto
          -40 callsubr
          hintmask 01110000
          -304.5 704.28613 rmoveto
          -61 callsubr
          endchar
        </CharString>
        <CharString name="uni1E6D">
          -124.28613 82.85742 62.42871 -21 497.14258 82.85742 hstemhm
          159.5 406 -243.59961 81.19922 hintmask 10001000
          362.5 -124.28613 rmoveto
          -40 callsubr
          hintmask 01110000
          -304.5 704.28613 rmoveto
          -61 callsubr
          endchar
        </CharString>
        <CharString name="uni1E6E">
          -124.28613 82.85742 62.42871 -21 497.14258 82.85742 hstemhm
          159.5 406 -324.80078 243.60156 hintmask 10001000
          240.69922 -124.28613 rmoveto
          -38 callsubr
          hintmask 01110000
          -426.30078 704.28613 rmoveto
          -61 callsubr
          endchar
        </CharString>
        <CharString name="uni1E6F">
          -124.28613 82.85742 62.42871 -21 497.14258 82.85742 hstemhm
          159.5 406 -324.80078 243.60156 hintmask 10001000
          240.69922 -124.28613 rmoveto
          -38 callsubr
          hintmask 01110000
          -426.30078 704.28613 rmoveto
          -61 callsubr
          endchar
        </CharString>
        <CharString name="uni1E72">
          -124.28613 82.85742 62.42871 -21 580 -20 hstemhm
          58 406 -223.2998 81.19922 81.20215 81.19922 60.90039 121.79883 hintmask 10001100
          281.2998 -124.28613 rmoveto
          -39 callsubr
          162.40137 hmoveto
          -39 callsubr
          hintmask 01110010
          -385.70117 704.28613 rmoveto
          -60 callsubr
          endchar
        </CharString>
        <CharString name="uni1E73">
          -124.28613 82.85742 62.42871 -21 580 -20 hstemhm
          58 406 -223.2998 81.19922 81.20215 81.19922 60.90039 121.79883 hintmask 10001100
          281.2998 -124.28613 rmoveto
          -39 callsubr
          162.40137 hmoveto
          -39 callsubr
          hintmask 01110010
          -385.70117 704.28613 rmoveto
          -60 callsubr
          endchar
        </CharString>
        <CharString name="uni1E7E">
          -124.28613 82.85742 62.42871 -21 580 -20 hstem
          321.90039 81.19922 vstem
          hintmask 00000000
          362.5 -124.28613 rmoveto
          -40 callsubr
          -304.5 704.28613 rmoveto
          -59 callsubr
          endchar
        </CharString>
        <CharString name="uni1E7F">
          -124.28613 82.85742 62.42871 -21 580 -20 hstem
          321.90039 81.19922 vstem
          hintmask 00000000
          362.5 -124.28613 rmoveto
          -40 callsubr
          -304.5 704.28613 rmoveto
          -59 callsubr
          endchar
        </CharString>
        <CharString name="uni1E86">
          21 -21 580 -20 61.42871 82.85742 hstem
          321.90039 81.19922 81.20117 81.19922 vstem
          362.5 704.28613 rmoveto
          -45 callsubr
          -362.5 -124.28613 rmoveto
          -58 callsubr
          endchar
        </CharString>
        <CharString name="uni1E87">
          21 -21 580 -20 61.42871 82.85742 hstem
          321.90039 81.19922 81.20117 81.19922 vstem
          362.5 704.28613 rmoveto
          -45 callsubr
          -362.5 -124.28613 rmoveto
          -58 callsubr
          endchar
        </CharString>
        <CharString name="uni1E88">
          -124.28613 82.85742 62.42871 -21 580 -20 hstem
          321.90039 81.19922 81.20117 81.19922 vstem
          hintmask 00000000
          362.5 -124.28613 rmoveto
          -40 callsubr
          -362.5 704.28613 rmoveto
          -58 callsubr
          endchar
        </CharString>
        <CharString name="uni1E89">
          -124.28613 82.85742 62.42871 -21 580 -20 hstem
          321.90039 81.19922 81.20117 81.19922 vstem
          hintmask 00000000
          362.5 -124.28613 rmoveto
          -40 callsubr
          -362.5 704.28613 rmoveto
          -58 callsubr
          endchar
        </CharString>
        <CharString name="uni1E8A">
          21 -21 580 -20 61.42871 82.85742 hstem
          321.90039 81.19922 vstem
          362.5 704.28613 rmoveto
          -45 callsubr
          -304.5 -124.28613 rmoveto
          -57 callsubr
          endchar
        </CharString>
        <CharString name="uni1E8B">
          21 -21 580 -20 61.42871 82.85742 hstem
          321.90039 81.19922 vstem
          362.5 704.28613 rmoveto
          -45 callsubr
          -304.5 -124.28613 rmoveto
          -57 callsubr
          endchar
        </CharString>
        <CharString name="uni1E8C">
          21 -21 580 -20 61.42871 82.85742 hstem
          240.7002 81.19922 81.20215 81.19922 vstem
          281.2998 704.28613 rmoveto
          -48 callsubr
          162.40137 hmoveto
          -48 callsubr
          -385.70117 -124.28613 rmoveto
          -57 callsubr
          endchar
        </CharString>
        <CharString name="uni1E8D">
          21 -21 580 -20 61.42871 82.85742 hstem
          240.7002 81.19922 81.20215 81.19922 vstem
          281.2998 704.28613 rmoveto
          -48 callsubr
          162.40137 hmoveto
          -48 callsubr
          -385.70117 -124.28613 rmoveto
          -57 callsubr
          endchar
        </CharString>
        <CharString name="uni1E8E">
          21 -21 580 -20 61.42871 82.85742 hstemhm
          159.5 406 -243.59961 81.19922 hintmask 00101000
          362.5 704.28613 rmoveto
          -45 callsubr
          hintmask 11010000
          -304.5 -124.28613 rmoveto
          -56 callsubr
          endchar
        </CharString>
        <CharString name="uni1E8F">
          21 -21 580 -20 61.42871 82.85742 hstemhm
          159.5 406 -243.59961 81.19922 hintmask 00101000
          362.5 704.28613 rmoveto
          -45 callsubr
          hintmask 11010000
          -304.5 -124.28613 rmoveto
          -56 callsubr
          endchar
        </CharString>
        <CharString name="uni1E92">
          -124.28613 82.85742 41.42871 82.85742 414.28516 82.85742 hstem
          321.90039 81.19922 vstem
          hintmask 00000000
          362.5 -124.28613 rmoveto
          -40 callsubr
          -304.5 704.28613 rmoveto
          -55 callsubr
          endchar
        </CharString>
        <CharString name="uni1E93">
          -124.28613 82.85742 41.42871 82.85742 414.28516 82.85742 hstem
          321.90039 81.19922 vstem
          hintmask 00000000
          362.5 -124.28613 rmoveto
          -40 callsubr
          -304.5 704.28613 rmoveto
          -55 callsubr
          endchar
        </CharString>
        <CharString name="uni1E94">
          -124.28613 82.85742 41.42871 82.85742 414.28516 82.85742 hstem
          240.69922 243.60156 vstem
          hintmask 00000000
          240.69922 -124.28613 rmoveto
          -38 callsubr
          -426.30078 704.28613 rmoveto
          -55 callsubr
          endchar
        </CharString>
        <CharString name="uni1E95">
          -124.28613 82.85742 41.42871 82.85742 414.28516 82.85742 hstem
          240.69922 243.60156 vstem
          hintmask 00000000
          240.69922 -124.28613 rmoveto
          -38 callsubr
          -426.30078 704.28613 rmoveto
          -55 callsubr
          endchar
        </CharString>
        <CharString name="uni1E96">
          -124.28613 82.85742 62.42871 -21 331.42773 82.85742 165.71484 -20 hstemhm
          58 406 -223.30078 243.60156 60.89844 121.80078 hintmask 10000100
          240.69922 -124.28613 rmoveto
          -38 callsubr
          hintmask 01111010
          -426.30078 704.28613 rmoveto
          -79 callsubr
          endchar
        </CharString>
        <CharString name="uni1E97">
          21 -21 497.14258 82.85742 41.42871 82.85742 hstemhm
          159.5 406 -324.7998 81.19922 81.20215 81.19922 hintmask 00101100
          281.2998 704.28613 rmoveto
          -48 callsubr
          162.40137 hmoveto
          -48 callsubr
          hintmask 11010000
          -385.70117 -124.28613 rmoveto
          -61 callsubr
          endchar
        </CharString>
        <CharString name="uni1EA0">
          -124.28613 82.85742 62.42871 -21 30.38086 82.85742 466.76172 -20 hstem
          321.90039 81.19922 vstem
          hintmask 00000000
          362.5 -124.28613 rmoveto
          -40 callsubr
          -203 704.28613 rmoveto
          -91 callsubr
          -365.40039 -231.99805 rmoveto
          -90 callsubr
          endchar
        </CharString>
        <CharString name="uni1EA1">
          -124.28613 82.85742 62.42871 -21 30.38086 82.85742 466.76172 -20 hstem
          321.90039 81.19922 vstem
          hintmask 00000000
          362.5 -124.28613 rmoveto
          -40 callsubr
          -203 704.28613 rmoveto
          -91 callsubr
          -365.40039 -231.99805 rmoveto
          -90 callsubr
          endchar
        </CharString>
        <CharString name="uni1EB8">
          -124.28613 82.85742 41.42871 82.85742 248.57031 82.85742 82.85742 82.85742 hstemhm
          58 406 -142.09961 81.19922 hintmask 10000100
          362.5 -124.28613 rmoveto
          -40 callsubr
          hintmask 01111000
          -304.5 704.28613 rmoveto
          -82 callsubr
          endchar
        </CharString>
        <CharString name="uni1EB9">
          -124.28613 82.85742 41.42871 82.85742 248.57031 82.85742 82.85742 82.85742 hstemhm
          58 406 -142.09961 81.19922 hintmask 10000100
          362.5 -124.28613 rmoveto
          -40 callsubr
          hintmask 01111000
          -304.5 704.28613 rmoveto
          -82 callsubr
          endchar
        </CharString>
        <CharString name="uni1ECA">
          -124.28613 82.85742 62.42871 -21 580 -20 hstemhm
          159.5 406 -243.59961 81.19922 hintmask 10001000
          362.5 -124.28613 rmoveto
          -40 callsubr
          hintmask 01110000
          -203 704.28613 rmoveto
          -78 callsubr
          endchar
        </CharString>
        <CharString name="uni1ECB">
          -124.28613 82.85742 62.42871 -21 580 -20 hstemhm
          159.5 406 -243.59961 81.19922 hintmask 10001000
          362.5 -124.28613 rmoveto
          -40 callsubr
          hintmask 01110000
          -203 704.28613 rmoveto
          -78 callsubr
          endchar
        </CharString>
        <CharString name="uni1ECC">
          -124.28613 82.85742 62.42871 -21 497.14258 82.85742 hstem
          321.90039 81.19922 142.09961 121.80078 vstem
          hintmask 00000000
          362.5 -124.28613 rmoveto
          -40 callsubr
          -142.09961 704.28613 rmoveto
          -72 callsubr
          -40.59961 -82.85742 rmoveto
          -83 callsubr
          endchar
        </CharString>
        <CharString name="uni1ECD">
          -124.28613 82.85742 62.42871 -21 497.14258 82.85742 hstem
          321.90039 81.19922 142.09961 121.80078 vstem
          hintmask 00000000
          362.5 -124.28613 rmoveto
          -40 callsubr
          -142.09961 704.28613 rmoveto
          -72 callsubr
          -40.59961 -82.85742 rmoveto
          -83 callsubr
          endchar
        </CharString>
        <CharString name="uni1EE4">
          -124.28613 82.85742 62.42871 -21 580 -20 hstemhm
          58 406 -142.09961 81.19922 142.10156 121.79883 hintmask 10001000
          362.5 -124.28613 rmoveto
          -40 callsubr
          hintmask 01110100
          -304.5 704.28613 rmoveto
          -60 callsubr
          endchar
        </CharString>
        <CharString name="uni1EE5">
          -124.28613 82.85742 62.42871 -21 580 -20 hstemhm
          58 406 -142.09961 81.19922 142.10156 121.79883 hintmask 10001000
          362.5 -124.28613 rmoveto
          -40 callsubr
          hintmask 01110100
          -304.5 704.28613 rmoveto
          -60 callsubr
          endchar
        </CharString>
        <CharString name="uni1EF4">
          -124.28613 82.85742 62.42871 -21 580 -20 hstemhm
          159.5 406 -243.59961 81.19922 hintmask 10001000
          362.5 -124.28613 rmoveto
          -40 callsubr
          hintmask 01110000
          -304.5 704.28613 rmoveto
          -56 callsubr
          endchar
        </CharString>
        <CharString name="uni1EF5">
          -124.28613 82.85742 62.42871 -21 580 -20 hstemhm
          159.5 406 -243.59961 81.19922 hintmask 10001000
          362.5 -124.28613 rmoveto
          -40 callsubr
          hintmask 01110000
          -304.5 704.28613 rmoveto
          -56 callsubr
          endchar
        </CharString>
        <CharString name="uni2000">
          endchar
        </CharString>
        <CharString name="uni2001">
          endchar
        </CharString>
        <CharString name="uni2002">
          endchar
        </CharString>
        <CharString name="uni2003">
          endchar
        </CharString>
        <CharString name="uni2004">
          endchar
        </CharString>
        <CharString name="uni2005">
          endchar
        </CharString>
        <CharString name="uni2006">
          endchar
        </CharString>
        <CharString name="uni2007">
          endchar
        </CharString>
        <CharString name="uni2008">
          endchar
        </CharString>
        <CharString name="uni2009">
          endchar
        </CharString>
        <CharString name="uni200A">
          endchar
        </CharString>
        <CharString name="uni2016">
          240.7002 81.2002 79.19336 81.2002 vstem
          240.7002 721.65137 rmoveto
          -863.30273 81.2002 863.30273 vlineto
          79.19336 -1.65137 rmoveto
          -860 81.2002 860 vlineto
          endchar
        </CharString>
        <CharString name="uni203E">
          637.14258 82.85742 hstem
          725 720 rmoveto
          -53 callsubr
          endchar
        </CharString>
        <CharString name="uni2160">
          21 -21 580 -20 hstem
          159.5 406 vstem
          159.5 580 rmoveto
          -78 callsubr
          endchar
        </CharString>
        <CharString name="uni2161">
          21 -21 21 -21 580 -20 20 -20 hstemhm
          98.59961 203 121.80078 203 hintmask 10101100
          98.59961 580 rmoveto
          -33 callsubr
          121.80078 hmoveto
          -33 callsubr
          endchar
        </CharString>
        <CharString name="uni2162">
          21 -21 21 -21 580 -20 20 -20 hstemhm
          98.59961 121.80078 81.19922 121.80078 81.19922 121.80078 cntrmask 00001110
          hintmask 10101110
          98.59961 580 rmoveto
          -32 callsubr
          81.19922 hmoveto
          -32 callsubr
          81.19922 hmoveto
          -32 callsubr
          endchar
        </CharString>
        <CharString name="uni2164">
          21 -21 580 -20 hstem
          58 580 rmoveto
          -59 callsubr
          endchar
        </CharString>
        <CharString name="uni2169">
          21 -21 580 -20 hstem
          58 580 rmoveto
          -57 callsubr
          endchar
        </CharString>
        <CharString name="uni216C">
          0 82.85742 497.14258 -20 hstem
          58 406 vstem
          58 580 rmoveto
          -75 callsubr
          endchar
        </CharString>
        <CharString name="uni216D">
          21 -21 497.14258 82.85742 hstem
          58 406 vstem
          220.40039 580 rmoveto
          -85 callsubr
          endchar
        </CharString>
        <CharString name="uni216E">
          21 -21 497.14258 82.85742 hstem
          58 406 81.19922 121.80078 vstem
          58 580 rmoveto
          -84 callsubr
          -40.59961 -82.85742 rmoveto
          -83 callsubr
          endchar
        </CharString>
        <CharString name="uni216F">
          21 -21 580 -20 hstem
          58 406 81.19922 121.80078 vstem
          58 580 rmoveto
          -74 callsubr
          endchar
        </CharString>
        <CharString name="uni2170">
          21 -21 580 -20 hstem
          159.5 406 vstem
          159.5 580 rmoveto
          -78 callsubr
          endchar
        </CharString>
        <CharString name="uni2171">
          21 -21 580 -20 hstem
          98.59961 203 121.80078 203 vstem
          98.59961 580 rmoveto
          -33 callsubr
          121.80078 hmoveto
          -33 callsubr
          endchar
        </CharString>
        <CharString name="uni2172">
          21 -21 580 -20 hstem
          98.59961 121.80078 81.19922 121.80078 81.19922 121.80078 vstem
          cntrmask 00111000
          98.59961 580 rmoveto
          -32 callsubr
          81.19922 hmoveto
          -32 callsubr
          81.19922 hmoveto
          -32 callsubr
          endchar
        </CharString>
        <CharString name="uni2174">
          21 -21 580 -20 hstem
          58 580 rmoveto
          -59 callsubr
          endchar
        </CharString>
        <CharString name="uni2179">
          21 -21 580 -20 hstem
          58 580 rmoveto
          -57 callsubr
          endchar
        </CharString>
        <CharString name="uni217C">
          0 82.85742 497.14258 -20 hstem
          58 406 vstem
          58 580 rmoveto
          -75 callsubr
          endchar
        </CharString>
        <CharString name="uni217D">
          21 -21 497.14258 82.85742 hstem
          58 406 vstem
          220.40039 580 rmoveto
          -85 callsubr
          endchar
        </CharString>
        <CharString name="uni217E">
          21 -21 497.14258 82.85742 hstem
          58 406 81.19922 121.80078 vstem
          58 580 rmoveto
          -84 callsubr
          -40.59961 -82.85742 rmoveto
          -83 callsubr
          endchar
        </CharString>
        <CharString name="uni217F">
          21 -21 580 -20 hstem
          58 406 81.19922 121.80078 vstem
          58 580 rmoveto
          -74 callsubr
          endchar
        </CharString>
        <CharString name="uni2183">
          21 -21 497.14258 82.85742 hstem
          261 406 vstem
          hintmask 00000000
          504.59961 580 rmoveto
          -31 callsubr
          endchar
        </CharString>
        <CharString name="uni2184">
          21 -21 497.14258 82.85742 hstem
          261 406 vstem
          hintmask 00000000
          504.59961 580 rmoveto
          -31 callsubr
          endchar
        </CharString>
        <CharString name="uni2423">
          -140 82.85742 0 140 hstemhm
          58 81.2002 446.59961 81.2002 hintmask 10110000
          667 -57.14258 rmoveto
          -30 callsubr
          hintmask 01110000
          -527.7998 222.85742 rmoveto
          -81.2002 hlineto
          hintmask 10110000
          -140 81.2002 vlineto
          hintmask 01110000
          527.7998 140 rmoveto
          -81.2002 hlineto
          hintmask 10110000
          -140 81.2002 vlineto
          endchar
        </CharString>
        <CharString name="uni2581">
          -140 107.5 hstem
          725 -32.5 rmoveto
          -725 -107.5 725 hlineto
          endchar
        </CharString>
        <CharString name="uni2582">
          -140 215 hstem
          725 75 rmoveto
          -725 -215 725 hlineto
          endchar
        </CharString>
        <CharString name="uni2583">
          -140 322.5 hstem
          725 182.5 rmoveto
          -725 -322.5 725 hlineto
          endchar
        </CharString>
        <CharString name="uni2585">
          -140 537.5 hstem
          725 397.5 rmoveto
          -725 -537.5 725 hlineto
          endchar
        </CharString>
        <CharString name="uni2586">
          -140 645 hstem
          0 725 vstem
          725 505 rmoveto
          -725 -645 725 hlineto
          endchar
        </CharString>
        <CharString name="uni2587">
          -140 752.5 hstem
          0 725 vstem
          725 612.5 rmoveto
          -725 -752.5 725 hlineto
          endchar
        </CharString>
        <CharString name="uni2589">
          0 634.375 vstem
          634.375 720 rmoveto
          -634.375 -860 634.375 hlineto
          endchar
        </CharString>
        <CharString name="uni258A">
          0 543.75 vstem
          543.75 720 rmoveto
          -543.75 -860 543.75 hlineto
          endchar
        </CharString>
        <CharString name="uni258B">
          0 453.125 vstem
          453.125 720 rmoveto
          -453.125 -860 453.125 hlineto
          endchar
        </CharString>
        <CharString name="uni258D">
          0 241.66699 vstem
          241.66699 720 rmoveto
          -241.66699 -860 241.66699 hlineto
          endchar
        </CharString>
        <CharString name="uni258E">
          0 181.25 vstem
          181.25 720 rmoveto
          -181.25 -860 181.25 hlineto
          endchar
        </CharString>
        <CharString name="uni258F">
          0 90.625 vstem
          90.625 720 rmoveto
          -90.625 -860 90.625 hlineto
          endchar
        </CharString>
        <CharString name="uni2594">
          532.5 107.5 hstem
          hintmask 00000000
          725 532.5 rmoveto
          -725 107.5 725 hlineto
          endchar
        </CharString>
        <CharString name="uni2595">
          0 90.625 vstem
          hintmask 00000000
          90.625 -220 rmoveto
          -90.625 860 90.625 hlineto
          endchar
        </CharString>
        <CharString name="uni2596">
          0 290 hstem
          58 304.5 vstem
          362.5 290 rmoveto
          -21 callsubr
          endchar
        </CharString>
        <CharString name="uni259A">
          0 290 0 290 hstemhm
          58 304.5 0 304.5 hintmask 10010000
          667 290 rmoveto
          hintmask 10100000
          -304.5 hlineto
          hintmask 10010000
          -290 304.5 vlineto
          hintmask 01100000
          -304.5 580 rmoveto
          -304.5 -290 hlineto
          hintmask 10100000
          304.5 hlineto
          endchar
        </CharString>
        <CharString name="uni259B">
          21 -21 21 -21 290 290 hstemhm
          58 304.5 hintmask 10110000
          58 580 rmoveto
          -580 304.5 290 304.5 290 vlineto
          endchar
        </CharString>
        <CharString name="uni259C">
          21 -21 21 -21 290 290 hstemhm
          362.5 304.5 hintmask 10110000
          58 580 rmoveto
          -290 304.5 -290 304.5 580 vlineto
          endchar
        </CharString>
        <CharString name="uni259D">
          290 290 hstem
          362.5 304.5 vstem
          667 580 rmoveto
          -21 callsubr
          endchar
        </CharString>
        <CharString name="uni259E">
          0 290 0 290 hstemhm
          58 304.5 0 304.5 hintmask 10100000
          362.5 290 rmoveto
          -21 callsubr
          hintmask 01010000
          304.5 580 rmoveto
          -304.5 hlineto
          hintmask 10100000
          -290 vlineto
          hintmask 01010000
          304.5 hlineto
          endchar
        </CharString>
        <CharString name="uni259F">
          0 290 290 -20 20 -20 hstemhm
          362.5 304.5 hintmask 11010000
          362.5 580 rmoveto
          -290 -304.5 -290 609 580 vlineto
          endchar
        </CharString>
        <CharString name="uni2610">
          0 82.85742 414.28516 82.85742 hstem
          58 81.19922 446.60156 81.19922 vstem
          58 580 rmoveto
          -580 609 580 vlineto
          -527.80078 -82.85742 rmoveto
          446.60156 -414.28516 -446.60156 hlineto
          endchar
        </CharString>
        <CharString name="uni2616">
          0 82.85742 497.14258 -20 20 -20 hstemhm
          hintmask 11000000
          362.5 580 rmoveto
          -20 callsubr
          -223.30078 61.83984 rmoveto
          151.01953 -107.34473 56.04102 -285.92285 -414.1211 0 56.04102 285.92285 rlineto
          endchar
        </CharString>
        <CharString name="uni2617">
          21 -21 21 -21 580 -20 20 -20 hstemhm
          hintmask 10100000
          362.5 580 rmoveto
          -20 callsubr
          endchar
        </CharString>
        <CharString name="uni2630">
          41.42871 82.85742 124.28516 82.85742 124.28516 82.85742 hstem
          cntrmask 11100000
          667 331.42871 rmoveto
          -30 callsubr
          290 vmoveto
          -30 callsubr
          -331.42773 vmoveto
          -30 callsubr
          endchar
        </CharString>
        <CharString name="uni2631">
          41.42871 82.85742 124.28516 82.85742 124.28516 82.85742 hstem
          cntrmask 11100000
          667 331.42871 rmoveto
          -30 callsubr
          -365.40039 290 rmoveto
          -19 callsubr
          365.40039 82.85742 rmoveto
          -19 callsubr
          -331.42773 vmoveto
          -30 callsubr
          endchar
        </CharString>
        <CharString name="uni2632">
          41.42871 82.85742 124.28516 82.85742 124.28516 82.85742 hstem
          cntrmask 11100000
          301.59961 331.42871 rmoveto
          -19 callsubr
          365.40039 82.85742 rmoveto
          -19 callsubr
          -124.28516 vmoveto
          -30 callsubr
          497.14258 vmoveto
          -30 callsubr
          endchar
        </CharString>
        <CharString name="uni2633">
          41.42871 82.85742 124.28516 82.85742 124.28516 82.85742 hstem
          58 243.59961 121.80078 243.59961 vstem
          cntrmask 11100000
          301.59961 331.42871 rmoveto
          -19 callsubr
          365.40039 82.85742 rmoveto
          -19 callsubr
          -124.28516 vmoveto
          -30 callsubr
          -365.40039 497.14258 rmoveto
          -19 callsubr
          365.40039 82.85742 rmoveto
          -19 callsubr
          endchar
        </CharString>
        <CharString name="uni2634">
          41.42871 82.85742 124.28516 82.85742 124.28516 82.85742 hstem
          cntrmask 11100000
          hintmask 00000000
          667 248.57129 rmoveto
          -18 callsubr
          -365.40039 -290 rmoveto
          -17 callsubr
          365.40039 -82.85742 rmoveto
          -17 callsubr
          331.42773 vmoveto
          -18 callsubr
          endchar
        </CharString>
        <CharString name="uni2635">
          41.42871 82.85742 124.28516 82.85742 124.28516 82.85742 hstem
          58 243.59961 121.80078 243.59961 vstem
          cntrmask 11100000
          667 331.42871 rmoveto
          -30 callsubr
          -365.40039 290 rmoveto
          -19 callsubr
          365.40039 82.85742 rmoveto
          -19 callsubr
          -365.40039 -331.42773 rmoveto
          -19 callsubr
          365.40039 82.85742 rmoveto
          -19 callsubr
          endchar
        </CharString>
        <CharString name="uni2636">
          41.42871 82.85742 124.28516 82.85742 124.28516 82.85742 hstem
          58 243.59961 121.80078 243.59961 vstem
          cntrmask 11100000
          hintmask 00000000
          301.59961 248.57129 rmoveto
          -17 callsubr
          365.40039 -82.85742 rmoveto
          -17 callsubr
          124.28516 vmoveto
          -18 callsubr
          -365.40039 -497.14258 rmoveto
          -17 callsubr
          365.40039 -82.85742 rmoveto
          -17 callsubr
          endchar
        </CharString>
        <CharString name="uni2637">
          41.42871 82.85742 124.28516 82.85742 124.28516 82.85742 hstem
          58 243.59961 121.80078 243.59961 vstem
          cntrmask 11100000
          301.59961 331.42871 rmoveto
          -19 callsubr
          365.40039 82.85742 rmoveto
          -19 callsubr
          -365.40039 290 rmoveto
          -19 callsubr
          365.40039 82.85742 rmoveto
          -19 callsubr
          -365.40039 -331.42773 rmoveto
          -19 callsubr
          365.40039 82.85742 rmoveto
          -19 callsubr
          endchar
        </CharString>
        <CharString name="uni268C">
          103.57129 124.28613 124.28516 124.28613 hstem
          667 352.14258 rmoveto
          -16 callsubr
          609 -248.57129 rmoveto
          -16 callsubr
          endchar
        </CharString>
        <CharString name="uni268D">
          103.57129 124.28613 124.28516 124.28613 hstem
          301.59961 476.42871 rmoveto
          -15 callsubr
          365.40039 124.28613 rmoveto
          -15 callsubr
          -124.28516 vmoveto
          -609 -124.28613 609 hlineto
          endchar
        </CharString>
        <CharString name="uni268E">
          103.57129 124.28613 124.28516 124.28613 hstem
          hintmask 00000000
          301.59961 103.57129 rmoveto
          -14 callsubr
          365.40039 -124.28613 rmoveto
          -14 callsubr
          124.28516 vmoveto
          -609 124.28613 609 hlineto
          endchar
        </CharString>
        <CharString name="uni268F">
          103.57129 124.28613 124.28516 124.28613 hstem
          58 243.59961 121.80078 243.59961 vstem
          301.59961 103.57129 rmoveto
          -13 callsubr
          609 hmoveto
          -13 callsubr
          -121.80078 248.57129 rmoveto
          -13 callsubr
          609 hmoveto
          -13 callsubr
          endchar
        </CharString>
        <CharString name="uni2690">
          21 -21 21 -21 165.71484 82.85742 248.57031 82.85742 hstemhm
          58 81.19922 446.60156 81.19922 hintmask 10111100
          58 580 rmoveto
          -12 callsubr
          -527.80078 -82.85742 rmoveto
          446.60156 -248.57031 -446.60156 hlineto
          endchar
        </CharString>
        <CharString name="uni2691">
          21 -21 21 -21 165.71484 414.28516 hstemhm
          58 81.19922 hintmask 10110000
          58 580 rmoveto
          -12 callsubr
          endchar
        </CharString>
        <CharString name="uni26EB">
          21 -21 21 -21 331.42773 82.85742 82.85742 82.85742 hstemhm
          58 81.19922 81.20117 81.19922 121.80078 81.19922 81.20117 81.19922 hintmask 10111111
          220.40039 580 rmoveto
          -165.71484 -162.40039 -414.28516 81.19922 331.42773 162.40039 165.71484 121.80078 -165.71484 162.40039 -331.42773 81.19922 414.28516 -162.40039 165.71484 vlineto
          endchar
        </CharString>
        <CharString name="uni26F0">
          21 -21 21 -21 580 -20 20 -20 hstemhm
          hintmask 10100000
          423.40039 580 rmoveto
          -121.80078 -241.95605 -81.19922 76.24219 -162.40039 -414.28613 609 0 rlineto
          endchar
        </CharString>
        <CharString name="uni26F6">
          0 192.07227 -192.07227 82.85742 305.07031 192.07227 -82.85742 82.85742 hstemhm
          58 203 -203 81.19922 324.80078 203 -81.19922 81.19922 hintmask 10000001
          585.80078 192.07227 rmoveto
          hintmask 01000001
          -109.21484 vlineto
          hintmask 01000010
          -121.80078 -82.85742 hlineto
          hintmask 10000010
          162.40039 hlineto
          22.41016 18.18945 18.55957 22.86816 hvcurveto
          hintmask 01000010
          0 41.42969 rlineto
          hintmask 10000001
          109.21484 vlineto
          hintmask 00010010
          -203 387.92773 rmoveto
          -82.85742 vlineto
          hintmask 00010001
          121.80078 hlineto
          hintmask 00100001
          -11 callsubr
          hintmask 00010010
          0 109.21484 0 41.42969 rlineto
          hintmask 00100010
          22.86816 -18.18945 18.55957 -22.41016 vhcurveto
          -527.80078 hmoveto
          hintmask 00011000
          -22.41016 -18.18945 -18.55957 -22.86816 hvcurveto
          0 -41.42969 rlineto
          hintmask 00100100
          -11 callsubr
          hintmask 00010100
          109.21484 vlineto
          hintmask 00011000
          121.80078 82.85742 hlineto
          hintmask 10000100
          -203 -387.92773 rmoveto
          hintmask 01001000
          0 -109.21484 0 -41.42969 rlineto
          hintmask 10001000
          -22.86816 18.18945 -18.55957 22.41016 vhcurveto
          hintmask 01001000
          162.40039 82.85742 hlineto
          hintmask 01000100
          -121.80078 hlineto
          hintmask 10000100
          109.21484 vlineto
          endchar
        </CharString>
        <CharString name="uni26FF">
          21 -21 21 -21 165.71484 82.85742 82.85547 82.85742 82.85742 82.85742 hstemhm
          58 81.19922 446.60156 81.19922 hintmask 10111110
          58 580 rmoveto
          -12 callsubr
          -527.80078 -82.85742 rmoveto
          446.60156 -82.85742 -446.60156 hlineto
          -82.85742 vmoveto
          446.60156 -82.85547 -446.60156 hlineto
          endchar
        </CharString>
        <CharString name="uni2719">
          0 82.85742 82.37695 92.66797 82.85547 73.04688 83.33789 82.85742 hstem
          58 81.19922 101.5 81.20117 81.19922 81.20117 101.5 81.19922 vstem
          240.69922 580 rmoveto
          -10 callsubr
          -162.40039 -82.85742 rmoveto
          81.19922 -156.38477 182.70117 -82.85547 -182.70117 -175.04492 -81.19922 175.04492 -182.70117 82.85547 182.70117 hlineto
          endchar
        </CharString>
        <CharString name="uni271A">
          21 -21 21 -21 165.23438 248.57031 166.19531 -20 20 -20 hstemhm
          240.69922 243.60156 hintmask 10110100
          240.69922 580 rmoveto
          -10 callsubr
          endchar
        </CharString>
        <CharString name="uni271B">
          0 217.5 -72.5 72.5 145 217.5 -217.5 72.5 hstemhm
          72.5 217.5 -72.5 72.5 145 217.5 -217.5 72.5 hintmask 00100100
          217.5 580 rmoveto
          hintmask 00010100
          -145 vlineto
          hintmask 00011000
          -145 -72.5 hlineto
          hintmask 00101000
          217.5 hlineto
          hintmask 00100100
          217.5 vlineto
          hintmask 00100001
          145 hmoveto
          hintmask 00100010
          -217.5 vlineto
          hintmask 00010010
          217.5 72.5 hlineto
          hintmask 00010001
          -145 hlineto
          hintmask 00100001
          145 vlineto
          hintmask 01001000
          -435 -362.5 rmoveto
          -72.5 vlineto
          hintmask 01000100
          145 hlineto
          hintmask 10000100
          -145 72.5 vlineto
          hintmask 10001000
          217.5 vlineto
          hintmask 10000010
          145 hmoveto
          hintmask 10000001
          -217.5 72.5 vlineto
          hintmask 01000001
          145 vlineto
          hintmask 01000010
          145 72.5 hlineto
          endchar
        </CharString>
        <CharString name="uni271C">
          21 -21 21 -21 126.875 18.125 72.5 145 72.5 18.125 126.875 -20 20 -20 hstemhm
          199.375 18.125 72.5 145 72.5 18.125 cntrmask 0000000111000000
          hintmask 0011110111000000
          199.375 580 rmoveto
          -126.875 -126.875 -18.125 145 145 vlineto
          72.5 hmoveto
          -217.5 -217.5 -145 217.5 vlineto
          hintmask 1011110111000000
          -217.5 145 217.5 217.5 145 -217.5 217.5 vlineto
          72.5 hmoveto
          -145 145 18.125 -126.875 126.875 vlineto
          -453.125 -435 rmoveto
          -18.125 126.875 -126.875 18.125 145 vlineto
          290 hmoveto
          -145 18.125 126.875 126.875 18.125 vlineto
          endchar
        </CharString>
        <CharString name="uni271D">
          21 -21 21 -21 331.42773 82.85742 165.71484 -20 20 -20 hstemhm
          321.90039 81.19922 hintmask 10110100
          321.90039 580 rmoveto
          -165.71484 -162.40039 -82.85742 162.40039 -331.42773 81.19922 331.42773 162.40039 82.85742 -162.40039 165.71484 vlineto
          endchar
        </CharString>
        <CharString name="uni271F">
          0 82.85742 165.71484 248.57031 -82.85742 165.71484 -82.85742 82.85742 hstemhm
          159.5 81.19922 0 81.20117 81.19922 81.19922 0 81.20117 hintmask 10100100
          240.69922 580 rmoveto
          hintmask 11000100
          -82.85742 vlineto
          hintmask 11001000
          -81.19922 -248.57031 hlineto
          hintmask 11000101
          81.19922 -248.57227 243.59961 hlineto
          hintmask 11000010
          248.57227 vlineto
          hintmask 11000101
          81.20117 248.57031 -81.20117 hlineto
          hintmask 10100101
          82.85742 vlineto
          hintmask 10010110
          -162.39844 -82.85742 rmoveto
          81.19922 hlineto
          hintmask 10100010
          -82.85742 vlineto
          hintmask 10100001
          81.19922 -82.85742 hlineto
          hintmask 10100110
          -81.19922 -248.57031 -81.19922 248.57031 hlineto
          hintmask 10101000
          -81.20117 82.85742 hlineto
          hintmask 10100110
          81.20117 hlineto
          endchar
        </CharString>
        <CharString name="uni272A">
          362.4961 580 rmoveto
          -9 callsubr
          0.0039 -12.55078 rmoveto
          58.03125 -196.52148 204.83398 5.53906 -168.96875 -115.91992 68.5625 -193.09766 -162.45898 124.8789 -162.45898 -124.8789 68.5625 193.09766 -168.96875 115.91992 204.83398 -5.53906 rlineto
          endchar
        </CharString>
        <CharString name="uni2779">
          0 96.66602 386.66797 96.66602 hstem
          439.83398 44.46484 81.20117 101.5 vstem
          362.4961 580 rmoveto
          -9 callsubr
          -138.87305 -96.66602 rmoveto
          -8 callsubr
          endchar
        </CharString>
        <CharString name="uni277C">
          0 96.66602 386.66797 96.66602 hstem
          362.4961 580 rmoveto
          -9 callsubr
          -202.9961 -96.66602 rmoveto
          -7 callsubr
          endchar
        </CharString>
        <CharString name="uni278D">
          0 96.66602 386.66797 96.66602 hstem
          439.83398 44.46484 81.20117 101.5 vstem
          362.4961 580 rmoveto
          -9 callsubr
          -138.87305 -96.66602 rmoveto
          -8 callsubr
          endchar
        </CharString>
        <CharString name="uni2790">
          0 96.66602 386.66797 96.66602 hstem
          362.4961 580 rmoveto
          -9 callsubr
          -202.9961 -96.66602 rmoveto
          -7 callsubr
          endchar
        </CharString>
        <CharString name="uni29E9">
          21 -21 21 -21 331.42773 82.85742 82.85742 82.85742 hstemhm
          139.19922 81.19922 284.20117 81.19922 hintmask 10111100
          58 580 rmoveto
          -82.85742 81.19922 -497.14258 81.19922 331.42773 284.20117 -331.42773 81.19922 497.14258 81.20117 82.85742 vlineto
          -446.60156 -82.85742 rmoveto
          284.20117 -82.85742 -284.20117 hlineto
          endchar
        </CharString>
        <CharString name="uniA746">
          0 82.85742 497.14258 -20 20 -20 hstemhm
          hintmask 11000000
          139.19922 580 rmoveto
          -6 callsubr
          endchar
        </CharString>
        <CharString name="uniA747">
          0 82.85742 497.14258 -20 hstem
          139.19922 580 rmoveto
          -6 callsubr
          endchar
        </CharString>
        <CharString name="uniA780">
          20 -20 497.14258 82.85742 hstem
          261 406 vstem
          hintmask 00000000
          667 hmoveto
          -5 callsubr
          endchar
        </CharString>
        <CharString name="uniA781">
          20 -20 497.14258 82.85742 hstem
          261 406 vstem
          hintmask 00000000
          667 hmoveto
          -5 callsubr
          endchar
        </CharString>
        <CharString name="uniA789">
          0.00098 82.85742 248.57031 82.85742 hstem
          321.90039 81.19922 vstem
          362.5 82.8584 rmoveto
          -93 callsubr
          331.42773 vmoveto
          -107 callsubr
          endchar
        </CharString>
        <CharString name="uniA78A">
          82.85742 82.85645 82.85742 82.85742 hstem
          240.7002 243.59961 vstem
          484.2998 331.42871 rmoveto
          -19 callsubr
          -82.85742 vmoveto
          -243.59961 -82.85645 243.59961 hlineto
          endchar
        </CharString>
        <CharString name="uniA78B">
          580 -20 20 -20 hstemhm
          321.90039 81.19922 hintmask 10100000
          403.09961 580 rmoveto
          -4 callsubr
          endchar
        </CharString>
        <CharString name="uniA78C">
          580 -20 hstem
          321.90039 81.19922 vstem
          403.09961 580 rmoveto
          -4 callsubr
          endchar
        </CharString>
        <CharString name="uniA7AE">
          0 82.85742 414.28516 82.85742 hstem
          159.5 406 vstem
          58 580 rmoveto
          -82.85742 101.5 -414.28516 -101.5 -82.85742 609 82.85742 -101.5 414.28516 101.5 82.85742 vlineto
          endchar
        </CharString>
        <CharString name="uniA7B1">
          0 82.85742 497.14258 -21 hstem
          159.5 406 vstem
          hintmask 00000000
          667 hmoveto
          82.85742 -101.5 497.14258 -406 -497.14258 -101.5 -82.85742 vlineto
          endchar
        </CharString>
        <CharString name="uniA7F7">
          82.85742 414.28516 hstem
          58 82.85742 rmoveto
          609 414.28516 -609 hlineto
          endchar
        </CharString>
        <CharString name="uniA7FB">
          21 -21 331.42773 82.85742 82.85742 82.85742 hstem
          261 406 vstem
          hintmask 00000000
          667 580 rmoveto
          -580 -406 331.42773 -81.19922 82.85742 81.19922 82.85742 -203 82.85742 vlineto
          endchar
        </CharString>
        <CharString name="uniA7FC">
          21 -21 497.14258 82.85742 hstem
          58 121.79883 vstem
          hintmask 00000000
          667 580 rmoveto
          -580 -406 82.85742 vlineto
          -112.11328 0 -90.88574 111.28809 -0.00098 137.28223 rrcurveto
          137.2832 72.70898 111.28906 89.6914 vhcurveto
          40.59961 -82.85742 rmoveto
          -44.8457 0.00098 -36.35547 -37.09668 0 -45.76172 0 -45.76172 36.35547 -37.09668 44.8457 0.00098 rrcurveto
          endchar
        </CharString>
        <CharString name="uniA7FD">
          20 -20 580 -21 hstem
          58 406 81.19922 121.80078 vstem
          hintmask 00000000
          58 hmoveto
          580 406 -497.14258 vlineto
          40.59961 16.66406 40.59961 -16.66406 0 497.14258 121.80078 0 0 -580 -121.80078 0 -40.59961 16.66602 -40.59961 -16.66602 rlineto
          endchar
        </CharString>
        <CharString name="uniFF01">
          0 82.85742 497.14258 -20 hstem
          321.90039 81.19922 vstem
          362.5 82.85742 rmoveto
          -107 callsubr
          -40.59961 497.14258 rmoveto
          -106 callsubr
          endchar
        </CharString>
        <CharString name="uniFF02">
          414.28613 165.71387 hstem
          240.7002 81.2002 81.19922 81.2002 vstem
          484.2998 580 rmoveto
          -105 callsubr
          -162.39941 165.71387 rmoveto
          -105 callsubr
          endchar
        </CharString>
        <CharString name="uniFF07">
          414.28613 165.71387 hstem
          321.90039 81.19922 vstem
          403.09961 580 rmoveto
          -104 callsubr
          endchar
        </CharString>
        <CharString name="uniFF0B">
          21 -21 165.71484 82.85742 hstem
          321.90039 81.19922 vstem
          321.90039 414.28516 rmoveto
          -103 callsubr
          endchar
        </CharString>
        <CharString name="uniFF0D">
          165.71387 82.85742 hstem
          565.5 248.57129 rmoveto
          -102 callsubr
          endchar
        </CharString>
        <CharString name="uniFF0E">
          0.00098 82.85742 hstem
          321.90039 81.19922 vstem
          362.5 82.8584 rmoveto
          -101 callsubr
          endchar
        </CharString>
        <CharString name="uniFF10">
          0 193.33398 303.8086 82.85742 hstem
          58 121.80078 365.39844 121.80078 vstem
          220.40039 580 rmoveto
          -100 callsubr
          -243.59961 -82.85742 rmoveto
          -99 callsubr
          endchar
        </CharString>
        <CharString name="uniFF11">
          21 -21 580 -20 hstem
          159.5 406 vstem
          443.69922 580 rmoveto
          -98 callsubr
          endchar
        </CharString>
        <CharString name="uniFF14">
          0 143.61914 -113.23828 82.85742 466.76172 -20 hstemhm
          545.19922 121.80078 hintmask 01110000
          154.1836 580 rmoveto
          -97 callsubr
          hintmask 10010000
          -96 callsubr
          hintmask 01110000
          -95 callsubr
          endchar
        </CharString>
        <CharString name="uniFF17">
          21 -21 497.14258 82.85742 hstem
          58 580 rmoveto
          -94 callsubr
          endchar
        </CharString>
        <CharString name="uniFF1A">
          0.00098 82.85742 248.57031 82.85742 hstem
          321.90039 81.19922 vstem
          362.5 82.8584 rmoveto
          -93 callsubr
          331.42773 vmoveto
          -107 callsubr
          endchar
        </CharString>
        <CharString name="uniFF1D">
          82.85742 82.85645 82.85742 82.85742 hstem
          565.5 331.42871 rmoveto
          -102 callsubr
          -82.85742 vmoveto
          -92 callsubr
          endchar
        </CharString>
        <CharString name="uniFF21">
          21 -21 30.38086 82.85742 466.76172 -20 hstem
          159.5 580 rmoveto
          -91 callsubr
          -365.40039 -231.99805 rmoveto
          -90 callsubr
          endchar
        </CharString>
        <CharString name="uniFF22">
          0 103.03711 165.71484 82.85742 145.5332 82.85742 hstemhm
          58 406 81.19922 101.19727 -101.19727 121.80078 hintmask 11110100
          58 580 rmoveto
          -89 callsubr
          hintmask 11111000
          -88 callsubr
          -82.85742 vmoveto
          -87 callsubr
          -82.85742 vmoveto
          hintmask 11110100
          -86 callsubr
          endchar
        </CharString>
        <CharString name="uniFF23">
          21 -21 497.14258 82.85742 hstem
          58 406 vstem
          220.40039 580 rmoveto
          -85 callsubr
          endchar
        </CharString>
        <CharString name="uniFF24">
          21 -21 497.14258 82.85742 hstem
          58 406 81.19922 121.80078 vstem
          58 580 rmoveto
          -84 callsubr
          -40.59961 -82.85742 rmoveto
          -83 callsubr
          endchar
        </CharString>
        <CharString name="uniFF25">
          0 82.85742 248.57031 82.85742 82.85742 82.85742 hstem
          58 406 vstem
          58 580 rmoveto
          -82 callsubr
          endchar
        </CharString>
        <CharString name="uniFF26">
          21 -21 331.42773 82.85742 82.85742 82.85742 hstem
          58 406 vstem
          58 580 rmoveto
          -81 callsubr
          endchar
        </CharString>
        <CharString name="uniFF27">
          21 -21 497.14258 82.85742 hstem
          58 406 46.6914 156.3086 vstem
          220.40039 580 rmoveto
          -80 callsubr
          endchar
        </CharString>
        <CharString name="uniFF28">
          21 -21 331.42773 82.85742 165.71484 -20 hstem
          58 406 81.19922 121.80078 vstem
          58 580 rmoveto
          -79 callsubr
          endchar
        </CharString>
        <CharString name="uniFF29">
          21 -21 580 -20 hstem
          159.5 406 vstem
          159.5 580 rmoveto
          -78 callsubr
          endchar
        </CharString>
        <CharString name="uniFF2A">
          21 -21 580 -20 hstem
          58 81.20117 121.79883 406 vstem
          261 580 rmoveto
          -77 callsubr
          endchar
        </CharString>
        <CharString name="uniFF2B">
          21 -21 580 -20 hstem
          58 580 rmoveto
          -76 callsubr
          endchar
        </CharString>
        <CharString name="uniFF2C">
          0 82.85742 497.14258 -20 hstem
          58 406 vstem
          58 580 rmoveto
          -75 callsubr
          endchar
        </CharString>
        <CharString name="uniFF2D">
          21 -21 580 -20 hstem
          58 406 81.19922 121.80078 vstem
          58 580 rmoveto
          -74 callsubr
          endchar
        </CharString>
        <CharString name="uniFF2E">
          21 -21 580 -20 hstem
          58 406 81.19922 121.80078 vstem
          58 580 rmoveto
          -73 callsubr
          endchar
        </CharString>
        <CharString name="uniFF2F">
          21 -21 497.14258 82.85742 hstem
          545.19922 121.80078 vstem
          220.40039 580 rmoveto
          -72 callsubr
          -40.59961 -82.85742 rmoveto
          -83 callsubr
          endchar
        </CharString>
        <CharString name="uniFF30">
          21 -21 497.14258 82.85742 hstem
          545.20117 121.79883 vstem
          58 580 rmoveto
          -71 callsubr
          -40.59961 -82.85742 rmoveto
          -70 callsubr
          endchar
        </CharString>
        <CharString name="uniFF31">
          21 -21 497.14258 82.85742 hstem
          545.19922 121.80078 vstem
          220.40039 580 rmoveto
          -69 callsubr
          203 hmoveto
          -68 callsubr
          81.20117 -580 rmoveto
          -67 callsubr
          endchar
        </CharString>
        <CharString name="uniFF32">
          21 -21 497.14453 82.85547 hstem
          545.19922 121.80078 vstem
          58 580 rmoveto
          -66 callsubr
          -40.59961 -82.85547 rmoveto
          -65 callsubr
          endchar
        </CharString>
        <CharString name="uniFF33">
          0 82.85742 414.28516 82.85742 hstemhm
          58.00977 507.49023 -406 507.49023 hintmask 11100000
          275.5 580 rmoveto
          -64 callsubr
          hintmask 11010000
          -63 callsubr
          hintmask 11100000
          -62 callsubr
          endchar
        </CharString>
        <CharString name="uniFF34">
          21 -21 497.14258 82.85742 hstem
          159.5 406 vstem
          58 580 rmoveto
          -61 callsubr
          endchar
        </CharString>
        <CharString name="uniFF35">
          21 -21 580 -20 hstem
          58 406 81.20117 121.79883 vstem
          58 580 rmoveto
          -60 callsubr
          endchar
        </CharString>
        <CharString name="uniFF36">
          21 -21 580 -20 hstem
          58 580 rmoveto
          -59 callsubr
          endchar
        </CharString>
        <CharString name="uniFF37">
          21 -21 580 -20 hstem
          484.30078 81.19922 vstem
          580 vmoveto
          -58 callsubr
          endchar
        </CharString>
        <CharString name="uniFF38">
          21 -21 580 -20 hstem
          58 580 rmoveto
          -57 callsubr
          endchar
        </CharString>
        <CharString name="uniFF39">
          21 -21 580 -20 hstem
          159.5 406 vstem
          58 580 rmoveto
          -56 callsubr
          endchar
        </CharString>
        <CharString name="uniFF3A">
          0 82.85742 414.28516 82.85742 hstem
          58 580 rmoveto
          -55 callsubr
          endchar
        </CharString>
        <CharString name="uniFF3E">
          583.8457 136.1543 hstem
          240.7002 243.59961 vstem
          362.5 720 rmoveto
          -54 callsubr
          endchar
        </CharString>
        <CharString name="uniFF3F">
          -140 82.85742 hstem
          725 -57.14258 rmoveto
          -53 callsubr
          endchar
        </CharString>
        <CharString name="uniFF40">
          583.84473 136.15527 hstem
          301.60059 121.7998 vstem
          423.40039 670.0039 rmoveto
          -52 callsubr
          endchar
        </CharString>
        <CharString name="uniFF41">
          21 -21 30.38086 82.85742 466.76172 -20 hstem
          159.5 580 rmoveto
          -91 callsubr
          -365.40039 -231.99805 rmoveto
          -90 callsubr
          endchar
        </CharString>
        <CharString name="uniFF42">
          0 103.03711 165.71484 82.85742 145.5332 82.85742 hstemhm
          58 406 81.19922 101.19727 -101.19727 121.80078 hintmask 11110100
          58 580 rmoveto
          -89 callsubr
          hintmask 11111000
          -88 callsubr
          -82.85742 vmoveto
          -87 callsubr
          -82.85742 vmoveto
          hintmask 11110100
          -86 callsubr
          endchar
        </CharString>
        <CharString name="uniFF43">
          21 -21 497.14258 82.85742 hstem
          58 406 vstem
          220.40039 580 rmoveto
          -85 callsubr
          endchar
        </CharString>
        <CharString name="uniFF44">
          21 -21 497.14258 82.85742 hstem
          58 406 81.19922 121.80078 vstem
          58 580 rmoveto
          -84 callsubr
          -40.59961 -82.85742 rmoveto
          -83 callsubr
          endchar
        </CharString>
        <CharString name="uniFF45">
          0 82.85742 248.57031 82.85742 82.85742 82.85742 hstem
          58 406 vstem
          58 580 rmoveto
          -82 callsubr
          endchar
        </CharString>
        <CharString name="uniFF46">
          21 -21 331.42773 82.85742 82.85742 82.85742 hstem
          58 406 vstem
          58 580 rmoveto
          -81 callsubr
          endchar
        </CharString>
        <CharString name="uniFF47">
          21 -21 497.14258 82.85742 hstem
          58 406 46.6914 156.3086 vstem
          220.40039 580 rmoveto
          -80 callsubr
          endchar
        </CharString>
        <CharString name="uniFF48">
          21 -21 331.42773 82.85742 165.71484 -20 hstem
          58 406 81.19922 121.80078 vstem
          58 580 rmoveto
          -79 callsubr
          endchar
        </CharString>
        <CharString name="uniFF49">
          21 -21 580 -20 hstem
          159.5 406 vstem
          159.5 580 rmoveto
          -78 callsubr
          endchar
        </CharString>
        <CharString name="uniFF4A">
          21 -21 580 -20 hstem
          58 81.20117 121.79883 406 vstem
          261 580 rmoveto
          -77 callsubr
          endchar
        </CharString>
        <CharString name="uniFF4B">
          21 -21 580 -20 hstem
          58 580 rmoveto
          -76 callsubr
          endchar
        </CharString>
        <CharString name="uniFF4C">
          0 82.85742 497.14258 -20 hstem
          58 406 vstem
          58 580 rmoveto
          -75 callsubr
          endchar
        </CharString>
        <CharString name="uniFF4D">
          21 -21 580 -20 hstem
          58 406 81.19922 121.80078 vstem
          58 580 rmoveto
          -74 callsubr
          endchar
        </CharString>
        <CharString name="uniFF4E">
          21 -21 580 -20 hstem
          58 406 81.19922 121.80078 vstem
          58 580 rmoveto
          -73 callsubr
          endchar
        </CharString>
        <CharString name="uniFF4F">
          21 -21 497.14258 82.85742 hstem
          545.19922 121.80078 vstem
          220.40039 580 rmoveto
          -72 callsubr
          -40.59961 -82.85742 rmoveto
          -83 callsubr
          endchar
        </CharString>
        <CharString name="uniFF50">
          21 -21 497.14258 82.85742 hstem
          545.20117 121.79883 vstem
          58 580 rmoveto
          -71 callsubr
          -40.59961 -82.85742 rmoveto
          -70 callsubr
          endchar
        </CharString>
        <CharString name="uniFF51">
          21 -21 497.14258 82.85742 hstem
          545.19922 121.80078 vstem
          220.40039 580 rmoveto
          -69 callsubr
          203 hmoveto
          -68 callsubr
          81.20117 -580 rmoveto
          -67 callsubr
          endchar
        </CharString>
        <CharString name="uniFF52">
          21 -21 497.14453 82.85547 hstem
          545.19922 121.80078 vstem
          58 580 rmoveto
          -66 callsubr
          -40.59961 -82.85547 rmoveto
          -65 callsubr
          endchar
        </CharString>
        <CharString name="uniFF53">
          0 82.85742 414.28516 82.85742 hstemhm
          58.00977 507.49023 -406 507.49023 hintmask 11100000
          275.5 580 rmoveto
          -64 callsubr
          hintmask 11010000
          -63 callsubr
          hintmask 11100000
          -62 callsubr
          endchar
        </CharString>
        <CharString name="uniFF54">
          21 -21 497.14258 82.85742 hstem
          159.5 406 vstem
          58 580 rmoveto
          -61 callsubr
          endchar
        </CharString>
        <CharString name="uniFF55">
          21 -21 580 -20 hstem
          58 406 81.20117 121.79883 vstem
          58 580 rmoveto
          -60 callsubr
          endchar
        </CharString>
        <CharString name="uniFF56">
          21 -21 580 -20 hstem
          58 580 rmoveto
          -59 callsubr
          endchar
        </CharString>
        <CharString name="uniFF57">
          21 -21 580 -20 hstem
          484.30078 81.19922 vstem
          580 vmoveto
          -58 callsubr
          endchar
        </CharString>
        <CharString name="uniFF58">
          21 -21 580 -20 hstem
          58 580 rmoveto
          -57 callsubr
          endchar
        </CharString>
        <CharString name="uniFF59">
          21 -21 580 -20 hstem
          159.5 406 vstem
          58 580 rmoveto
          -56 callsubr
          endchar
        </CharString>
        <CharString name="uniFF5A">
          0 82.85742 414.28516 82.85742 hstem
          58 580 rmoveto
          -55 callsubr
          endchar
        </CharString>
        <CharString name="uniFF5C">
          21 -21 580 -20 hstem
          321.90039 81.19922 vstem
          321.90039 580 rmoveto
          -51 callsubr
          endchar
        </CharString>
        <CharString name="uniFFE4">
          21 -21 580 -20 hstem
          321.90039 81.19922 vstem
          321.90039 580 rmoveto
          -49 callsubr
          -81.19922 -331.42871 rmoveto
          -49 callsubr
          endchar
        </CharString>
        <CharString name="uniFFE5">
          21 -21 82.85742 82.85742 82.85742 82.85547 248.57227 -20 hstem
          58 580 rmoveto
          -50 callsubr
          endchar
        </CharString>
        <CharString name="uniFFED">
          82.85742 414.28516 hstem
          159.5 406 vstem
          159.5 497.14258 rmoveto
          -414.28516 406 414.28516 vlineto
          endchar
        </CharString>
        <CharString name="upblock">
          290 430 hstem
          725 720 rmoveto
          -725 -430 725 hlineto
          endchar
        </CharString>
        <CharString name="v">
          21 -21 580 -20 hstem
          58 580 rmoveto
          -59 callsubr
          endchar
        </CharString>
        <CharString name="w">
          21 -21 580 -20 hstem
          484.30078 81.19922 vstem
          580 vmoveto
          -58 callsubr
          endchar
        </CharString>
        <CharString name="wdieresis">
          21 -21 580 -20 61.42871 82.85742 hstemhm
          240.7002 81.19922 81.20215 81.19922 0 81.19922 hintmask 00111000
          281.2998 704.28613 rmoveto
          -48 callsubr
          162.40137 hmoveto
          -48 callsubr
          hintmask 11000100
          -443.70117 -124.28613 rmoveto
          -58 callsubr
          endchar
        </CharString>
        <CharString name="x">
          21 -21 580 -20 hstem
          58 580 rmoveto
          -57 callsubr
          endchar
        </CharString>
        <CharString name="y">
          21 -21 580 -20 hstem
          159.5 406 vstem
          58 580 rmoveto
          -56 callsubr
          endchar
        </CharString>
        <CharString name="ydieresis">
          21 -21 580 -20 61.42871 82.85742 hstemhm
          159.5 406 -324.7998 81.19922 81.20215 81.19922 hintmask 00101100
          281.2998 704.28613 rmoveto
          -48 callsubr
          162.40137 hmoveto
          -48 callsubr
          hintmask 11010000
          -385.70117 -124.28613 rmoveto
          -56 callsubr
          endchar
        </CharString>
        <CharString name="yen">
          21 -21 21 -21 82.85742 82.85742 82.85742 82.85547 248.57227 -20 20 -20 hstemhm
          hintmask 10111000
          58 580 rmoveto
          -50 callsubr
          endchar
        </CharString>
        <CharString name="z">
          0 82.85742 414.28516 82.85742 hstem
          58 580 rmoveto
          -55 callsubr
          endchar
        </CharString>
        <CharString name="zdotaccent">
          0 82.85742 414.28516 82.85742 41.42871 82.85742 hstem
          321.90039 81.19922 vstem
          362.5 704.28613 rmoveto
          -45 callsubr
          -304.5 -124.28613 rmoveto
          -55 callsubr
          endchar
        </CharString>
        <CharString name="zero">
          0 193.33398 303.8086 82.85742 hstem
          58 121.80078 365.39844 121.80078 vstem
          220.40039 580 rmoveto
          -100 callsubr
          -243.59961 -82.85742 rmoveto
          -99 callsubr
          endchar
        </CharString>
</ttFont>
